<svg id="calogo" xmlns="http://www.w3.org/2000/svg" viewBox="0 0 980 428">
  <title>interactive-logo-crimson-ver001</title>
  <polygon points="135.78 186.32 141.73 185.68 147.81 183.78 152.43 180.8 153.97 176.96 152.29 172.21 147.28 159.04 143.27 149.27 139.25 139.51 138.25 138.71 137.38 138.44 128.42 138.24 111.71 138.17 96.13 138.24 84.69 138.44 83.69 138.78 82.82 139.78 78.41 149.94 73.99 160.1 69.98 170.2 68.64 176.42 69.85 180.23 73.46 183.11 77.97 185.01 81.88 185.92 85.26 186.22 88.17 186.32 88.77 187.52 88.97 190.6 88.84 194.01 88.44 196.21 83.19 195.78 74.39 195.01 64.8 194.31 57.14 194.07 49.79 194.31 41.1 195.01 32.8 195.78 26.65 196.21 25.85 194.68 25.58 192.2 25.72 187.99 26.12 186.58 30.4 185.88 36.82 183.78 42.9 180.94 46.18 178.03 48.35 174.45 50.59 170.13 52.63 165.89 54.2 162.51 54.87 160.91 55.54 159.3 85.09 91.37 114.65 23.43 118.59 18.22 124.54 16.48 128.16 17.35 130.96 19.95 158.38 87.76 185.79 155.56 190.54 167.19 194.62 177.49 197.63 181.27 203.45 184.04 209.8 185.75 214.41 186.32 215.21 187.45 215.48 190.86 215.35 194.47 214.95 196.21 210.3 195.94 198.5 195.14 185.22 194.34 176.16 194.07 165.13 194.61 135.78 196.21 134.97 194.31 134.71 190.73 134.97 187.42 135.78 186.32 135.78 186.32"/>
  <polygon points="91.91 121.32 100.87 121.92 111.71 122.13 121.8 121.99 130.7 121.59 131.1 120.92 131.5 120.25 121.87 96.32 112.24 72.38 101.81 96.32 91.38 120.25 91.51 121.06 91.91 121.32 91.91 121.32"/>
  <polygon points="246.63 96.18 237.94 96.18 229.25 96.18 227.64 94.11 227.11 87.89 227.24 86.09 227.65 84.95 241.15 77.6 251.72 70.51 256.06 67.13 261.08 62.88 266.06 58.54 270.31 54.86 273.28 52.29 274.45 51.25 276.66 51.48 279 52.19 280.8 53.16 281.4 54.19 281.4 67.3 281.4 80.4 295.85 80.4 310.29 80.4 311.9 81.07 312.43 83.08 311.76 90.23 309.76 96.18 295.58 96.18 281.4 96.18 281.4 127.88 281.4 159.57 285.02 174.82 295.85 179.9 299.69 179.66 303.2 178.96 306.18 177.99 308.42 176.96 309.89 176.15 310.56 175.89 311.66 176.56 312.83 178.56 313.74 180.9 314.04 182.57 311.29 186.38 303.07 191.4 292.44 195.61 282.48 197.01 268.8 194.71 257.2 187.79 249.28 175.72 246.63 157.97 246.63 127.07 246.63 96.18 246.63 96.18"/>
  <polygon points="353.48 53.12 353.15 42.02 352.14 33.86 348 30.66 338.24 29.58 337.03 29.58 335.83 29.58 334.63 28.25 334.22 24.23 334.63 20.82 335.83 19.69 344.15 18.75 352.55 17.55 360.33 16.21 366.85 14.87 372.44 13.54 377.42 12.2 381.6 11 384.77 10.06 386.11 9.66 387.45 9.26 387.72 9.26 387.98 9.26 389.05 9.66 390.12 10.86 390.99 12.4 391.46 13.8 389.25 26.58 388.52 40.82 388.38 98.05 388.25 155.29 388.72 169.94 390.12 179.63 392.26 181.64 397.61 183.91 403.43 185.72 406.97 186.32 407.61 187.42 407.91 190.73 407.88 194.31 407.51 196.21 401.86 195.78 390.79 195.01 378.92 194.31 370.87 194.07 362.64 194.31 350.81 195.01 339.84 195.78 334.22 196.21 333.42 194.31 333.15 190.73 333.42 187.42 334.22 186.32 338.17 185.72 344.12 183.91 349.47 181.64 351.61 179.63 353.01 170.54 353.48 159.3 353.48 106.21 353.48 53.12 353.48 53.12"/>
  <polygon points="488.14 75.05 504.69 77.63 516.89 85.35 524.42 99.83 526.93 122.66 526.93 165.99 528.53 172.81 533.34 175.08 537.89 174.22 542.44 171.61 543.84 173.15 544.31 175.62 543.84 181.44 542.44 185.51 537.52 189.09 530.27 192.87 522.08 195.78 514.36 196.75 508.07 195.78 502.05 192.87 497.17 188.69 494.3 183.91 493.63 184.28 492.15 185.38 490.01 186.95 487.34 188.72 484.16 190.6 480.52 192.47 476.27 194.21 471.29 195.68 465.94 196.68 460.6 197.01 447.39 194.98 437.19 188.86 430.67 179.66 428.5 168.4 429.33 161.48 431.84 155.16 435.45 149.68 439.6 145.26 444.78 141.52 451.5 138.04 458.45 135.1 464.34 132.96 470.46 131.09 478.11 128.95 485.24 126.97 489.75 125.6 491.55 124.2 492.15 121.59 492.15 116.78 492.15 111.96 488.81 95.51 478.78 90.03 467.15 94.51 463.27 107.95 462.07 113.07 458.45 116.64 453.37 118.75 447.76 119.45 437.39 117.44 430.91 111.43 435.42 98.36 448.96 86.42 467.78 77.89 488.14 75.05 488.14 75.05"/>
  <polygon points="477.44 177.76 483.63 176.92 488.28 174.41 491.18 170.7 492.15 166.26 492.15 139.24 490.58 139.81 486.94 140.98 483.09 142.22 480.92 142.99 478.98 143.76 475.84 144.99 472.66 146.4 470.63 147.67 468.99 149.04 467.01 150.74 465.21 152.68 464.07 154.76 463.47 157.03 463.27 159.57 464.31 167.86 467.42 173.48 471.99 176.69 477.44 177.76 477.44 177.76"/>
  <polygon points="659.98 75.86 674.06 79.13 685.26 88.96 692.58 105.48 695.02 128.81 695.02 142.05 695.02 155.29 695.49 169.94 696.89 179.63 699.03 181.64 704.38 183.91 710.2 185.72 713.74 186.32 714.38 187.42 714.68 190.73 714.64 194.31 714.28 196.21 708.63 195.78 697.56 195.01 685.69 194.31 677.63 194.07 669.58 194.31 658.24 195.01 647.71 195.78 642.06 196.21 641.26 194.31 640.99 190.73 641.26 187.42 642.06 186.32 645.87 185.72 651.42 183.91 656.37 181.64 658.38 179.63 659.78 170.54 660.25 159.3 660.25 147.27 660.25 135.23 658.88 118.28 654.77 107.01 647.64 100.69 637.25 98.59 629.76 99.36 623.88 101.67 620.06 105.38 618.79 110.36 618.79 132.82 618.79 155.29 619.26 169.94 620.67 179.63 622.7 181.64 627.75 183.91 633.2 185.72 636.45 186.32 637.08 187.42 637.38 190.73 637.35 194.31 636.98 196.21 631.3 195.78 620.67 195.01 609.3 194.31 601.41 194.07 593.18 194.31 581.35 195.01 570.38 195.78 564.77 196.21 563.96 194.31 563.7 190.73 563.96 187.42 564.77 186.32 568.71 185.72 574.66 183.91 580.01 181.64 582.15 179.63 583.55 170.54 584.02 159.3 584.02 140.98 584.02 122.66 582.82 110.16 579.21 102.6 576.87 100.66 573.59 99.12 570.11 97.99 567.17 97.25 565.17 96.78 564.5 96.45 564.83 89.43 565.84 87.09 570.12 86.72 576.53 85.62 585.16 83.85 596.06 81.47 606.76 79.13 614.78 77.46 615.35 77.39 615.99 77.19 616.62 76.99 617.19 76.92 617.46 76.79 617.72 76.66 619.06 77.09 620.4 78.4 621.4 79.97 621.74 81.2 620.93 87.02 620.67 89.5 620.73 90.57 620.93 91.1 621.67 90.77 622.81 89.76 639.59 79.33 659.98 75.86 659.98 75.86"/>
  <polygon points="754.26 96.18 745.56 96.18 736.87 96.18 735.27 94.11 734.73 87.89 734.87 86.09 735.27 84.95 748.77 77.6 759.34 70.51 763.68 67.13 768.7 62.88 773.68 58.54 777.93 54.86 780.9 52.29 782.07 51.25 784.28 51.48 786.62 52.19 788.42 53.16 789.03 54.19 789.03 67.3 789.03 80.4 803.47 80.4 817.91 80.4 819.52 81.07 820.05 83.08 819.38 90.23 817.38 96.18 803.2 96.18 789.03 96.18 789.03 127.88 789.03 159.57 792.64 174.82 803.47 179.9 807.31 179.66 810.83 178.96 813.8 177.99 816.04 176.96 817.51 176.15 818.18 175.89 819.28 176.56 820.45 178.56 821.36 180.9 821.66 182.57 818.92 186.38 810.69 191.4 800.06 195.61 790.1 197.01 776.42 194.71 764.82 187.79 756.9 175.72 754.26 157.97 754.26 127.07 754.26 96.18 754.26 96.18"/>
  <polygon points="898.82 75.59 920.51 79.77 937.46 92.3 948.4 109.19 952.04 126.41 951.4 131.49 949.5 134.43 945.72 135.83 939.47 136.3 909.25 136.3 879.02 136.3 877.82 136.77 877.42 138.17 879.46 151.88 885.58 164.12 895.5 172.74 908.98 175.62 917.61 174.98 925.83 173.08 932.65 170.67 937.06 168.53 940.81 166.02 945.62 162.51 947.43 164.32 948.03 167.59 947.76 170.54 946.96 172.94 941.61 179.97 930.91 188.19 916.73 194.81 900.96 197.01 878.05 192.54 858.56 179.09 845.22 159.37 840.78 136.03 844.79 112.43 856.82 92.97 875.35 79.93 898.82 75.59 898.82 75.59"/>
  <polygon points="897.48 90.3 888.45 92.81 882.23 100.33 878.62 110.26 877.42 119.99 877.89 121.19 879.29 121.59 913.26 121.59 916.07 120.32 917 116.51 915.63 106.88 911.52 98.32 905.27 92.3 897.48 90.3 897.48 90.3"/>
  <polygon points="165.47 367.66 164.43 374.75 161.32 388.52 157.54 401.63 154.5 406.71 124.48 414.93 94.32 417.67 61.56 411.15 33.88 391.6 15.02 363.08 8.73 329.68 15.05 294.41 34.01 264.55 62.39 244.19 97 237.4 126.88 239.34 158.25 245.16 159.75 249.77 161.59 263.08 163.09 277.32 163.59 284.74 161.79 287.75 156.37 288.76 155.17 288.56 152.09 287.95 150.32 283.01 147.68 277.79 143.87 272.24 138.59 266.29 131.43 260.71 122 256.26 110.8 253.35 98.33 252.38 62.43 270.3 50.46 324.06 54.13 354.85 65.17 380.36 82.95 397.51 106.89 403.23 125.35 399.62 141.13 388.79 144.44 384.68 147.41 379.29 149.89 373.74 151.69 369.13 152.86 366.02 153.43 364.98 161.92 365.65 165.47 367.66 165.47 367.66"/>
  <polygon points="245.3 295.71 261.85 298.29 274.05 306.01 281.57 320.48 284.08 343.32 284.08 364.98 284.08 386.65 285.69 393.47 290.5 395.74 295.05 394.87 299.59 392.26 301 393.8 301.47 396.28 301 402.09 299.59 406.17 294.68 409.75 287.42 413.53 279.23 416.44 271.51 417.4 265.22 416.44 259.21 413.53 254.32 409.35 251.45 404.57 250.78 404.94 249.31 406.04 247.17 407.61 244.5 409.38 241.32 411.25 237.68 413.13 233.43 414.87 228.45 416.34 223.1 417.34 217.75 417.67 204.54 415.63 194.35 409.52 187.83 400.32 185.65 389.06 186.49 382.13 189 375.81 192.61 370.33 196.75 365.92 201.94 362.18 208.66 358.7 215.61 355.76 221.5 353.62 227.61 351.75 235.27 349.6 242.39 347.63 246.9 346.26 248.71 344.86 249.31 342.25 249.31 337.43 249.31 332.62 245.97 316.17 235.94 310.69 224.3 315.17 220.43 328.61 219.22 333.72 215.61 337.3 210.53 339.41 204.91 340.11 194.55 338.1 188.06 332.08 192.57 319.01 206.12 307.08 224.94 298.55 245.3 295.71 245.3 295.71"/>
  <polygon points="234.6 398.42 240.78 397.58 245.43 395.07 248.34 391.36 249.31 386.92 249.31 359.9 247.74 360.47 244.09 361.64 240.25 362.88 238.08 363.65 236.14 364.42 233 365.65 229.82 367.06 227.78 368.33 226.14 369.7 224.17 371.4 222.36 373.34 221.23 375.41 220.63 377.69 220.43 380.23 221.46 388.52 224.57 394.14 229.15 397.35 234.6 398.42 234.6 398.42"/>
  <polygon points="340.91 273.78 340.58 262.68 339.57 254.52 335.43 251.31 325.67 250.24 324.46 250.24 323.26 250.24 322.06 248.91 321.65 244.89 322.06 241.48 323.26 240.34 331.58 239.41 339.98 238.21 347.76 236.87 354.28 235.53 359.87 234.19 364.85 232.86 369.03 231.65 372.2 230.72 373.54 230.31 374.88 229.91 375.15 229.91 375.41 229.91 376.48 230.31 377.55 231.52 378.42 233.06 378.89 234.46 376.68 247.23 375.95 261.48 375.81 318.71 375.68 375.95 376.15 390.59 377.55 400.29 379.69 402.29 385.04 404.57 390.86 406.37 394.4 406.98 395.04 408.08 395.34 411.39 395.31 414.96 394.94 416.87 389.29 416.44 378.22 415.67 366.35 414.96 358.3 414.73 350.07 414.96 338.24 415.67 327.27 416.44 321.65 416.87 320.85 414.96 320.58 411.39 320.85 408.08 321.65 406.98 325.6 406.37 331.55 404.57 336.9 402.29 339.04 400.29 340.44 391.19 340.91 379.96 340.91 326.87 340.91 273.78 340.91 273.78"/>
  <polygon points="515.96 312.83 508.74 308.62 498.31 307.21 497.7 306.01 497.5 302.93 497.64 299.52 498.04 297.31 503.69 297.75 512.62 298.52 522.01 299.22 529.06 299.45 536.39 299.22 545.51 298.52 554.11 297.75 559.82 297.31 560.62 298.99 560.89 301.86 560.62 305.88 559.82 307.21 555.01 307.91 548.59 310.02 542.5 313.4 538.69 317.91 515.16 364.45 491.62 410.99 487.61 416.8 483.6 418.74 480.92 418.21 479.32 416.6 457.12 366.59 434.92 316.57 431.74 312.23 426.49 309.35 420.78 307.75 416.2 307.21 415.39 305.88 415.13 301.86 415.39 299.12 416.2 297.31 421.85 297.75 432.91 298.52 444.78 299.22 452.84 299.45 461.5 299.19 474.1 298.38 485.64 297.58 491.09 297.31 491.89 299.22 492.16 302.8 491.89 306.11 491.09 307.21 486.3 307.75 479.99 309.35 474.67 311.69 472.9 314.43 473.17 316.44 473.43 318.44 484 343.59 494.56 368.73 505.13 346.53 515.69 324.33 517.76 317.58 515.96 312.83 515.96 312.83"/>
  <polygon points="635.64 375.95 636.11 390.59 637.52 400.29 639.69 402.29 645.14 404.57 650.99 406.37 654.37 406.98 655.17 408.08 655.44 411.39 655.3 414.96 654.9 416.87 649.42 416.44 638.32 415.67 626.35 414.96 618.26 414.73 610.07 414.96 598.33 415.67 587.4 416.44 581.62 416.87 581.01 414.96 580.81 411.39 581.01 408.08 581.62 406.98 585.73 406.37 591.65 404.57 596.89 402.29 599 400.29 600.4 391.19 600.87 379.96 600.87 361.64 600.87 343.32 599.67 330.81 596.06 323.26 593.75 321.32 590.58 319.78 587.17 318.65 584.16 317.91 582.05 317.44 581.35 317.11 581.68 310.09 582.69 307.75 591.21 306.84 606.09 304.13 621.5 300.82 631.63 298.12 632.5 297.92 634.57 297.31 636.08 297.75 637.38 299.05 638.28 300.63 638.59 301.86 638.18 304.94 637.52 309.89 636.78 315.4 636.18 320.18 635.78 324.5 635.64 328.61 635.64 352.28 635.64 375.95 635.64 375.95"/>
  <polygon points="601.94 265.08 597.53 258.7 596.06 251.04 597.53 243.39 601.94 237 608.39 232.69 615.99 231.25 623.54 232.69 629.89 237 634.21 243.39 635.64 251.04 634.21 258.7 629.89 265.08 623.54 269.4 615.99 270.84 608.39 269.4 601.94 265.08 601.94 265.08"/>
  <polygon points="769.77 296.51 783.84 299.79 795.05 309.62 802.37 326.13 804.81 349.47 804.81 362.71 804.81 375.95 805.28 390.59 806.68 400.29 808.82 402.29 814.17 404.57 819.99 406.37 823.53 406.98 824.16 408.08 824.47 411.39 824.43 414.96 824.07 416.87 818.41 416.44 807.35 415.67 795.48 414.96 787.42 414.73 779.37 414.96 768.03 415.67 757.5 416.44 751.85 416.87 751.05 414.96 750.78 411.39 751.05 408.08 751.85 406.98 755.66 406.37 761.21 404.57 766.16 402.29 768.17 400.29 769.57 391.19 770.04 379.96 770.04 367.93 770.04 355.89 768.67 338.94 764.55 327.67 757.43 321.35 747.04 319.25 739.55 320.02 733.66 322.32 729.85 326.03 728.58 331.01 728.58 353.48 728.58 375.95 729.05 390.59 730.45 400.29 732.49 402.29 737.54 404.57 742.99 406.37 746.23 406.98 746.87 408.08 747.17 411.39 747.13 414.96 746.77 416.87 741.08 416.44 730.45 415.67 719.09 414.96 711.2 414.73 702.97 414.96 691.14 415.67 680.17 416.44 674.55 416.87 673.75 414.96 673.48 411.39 673.75 408.08 674.55 406.98 678.5 406.37 684.45 404.57 689.8 402.29 691.94 400.29 693.34 391.19 693.81 379.96 693.81 361.64 693.81 343.32 692.61 330.81 689 323.26 686.65 321.32 683.38 319.78 679.9 318.65 676.96 317.91 674.95 317.44 674.29 317.11 674.62 310.09 675.62 307.75 679.9 307.38 686.32 306.27 694.95 304.5 705.85 302.13 716.54 299.79 724.57 298.12 725.14 298.05 725.77 297.85 726.41 297.65 726.98 297.58 727.24 297.45 727.51 297.31 728.85 297.75 730.19 299.05 731.19 300.63 731.52 301.86 730.72 307.68 730.45 310.15 730.52 311.23 730.72 311.76 731.46 311.42 732.59 310.42 749.38 299.99 769.77 296.51 769.77 296.51"/>
  <polygon points="863.38 313.9 883.67 300.66 907.91 296.25 932.15 300.66 952.44 313.9 966.18 333.49 970.76 356.96 966.22 380.43 952.58 400.02 932.31 413.26 907.91 417.67 883.67 413.26 863.38 400.02 849.63 380.43 845.06 356.96 849.63 333.49 863.38 313.9 863.38 313.9"/>
  <polygon points="904.16 310.95 897.08 312.49 891.33 317.11 887.11 323.69 884.64 331.15 883.44 339.47 883.03 348.67 884.13 368.15 889.92 389.39 899.46 400.15 910.58 402.96 920.31 400.22 927.03 392 930.94 380.1 932.25 366.32 931.12 346.31 925.23 324.8 917.14 314.89 904.16 310.95 904.16 310.95"/>
</svg>
