<?xml version="1.0" encoding="utf-8"?>
<!-- Generator: Adobe Illustrator 19.2.1, SVG Export Plug-In . SVG Version: 6.00 Build 0)  -->
<svg version="1.1" id="calogo" xmlns="http://www.w3.org/2000/svg" xmlns:xlink="http://www.w3.org/1999/xlink" x="0px" y="0px"
	 viewBox="0 0 112.8 128.4" style="enable-background:new 0 0 112.8 128.4;" xml:space="preserve">
<polygon points="109.1,91.3 108.9,93.2 108.4,96.1 107.5,100.2 106.3,105.4 105,110.6 103.7,114.3 102.6,116.7 101.7,117.8 
	91.5,121 81.4,123.3 71.2,124.7 61,125.2 49.4,124.1 38.8,120.8 29,115.2 20,107.5 12.6,98.3 7.3,88.2 4.1,77.3 3,65.6 4.1,53.2 
	7.3,41.8 12.7,31.2 20.1,21.5 29.2,13.5 39.3,7.8 50.5,4.3 62.8,3.2 72.8,3.5 83,4.5 93.5,6.1 104.2,8.4 104.7,9.2 105.2,11.5 
	105.8,15.3 106.5,20.5 107.1,25.9 107.5,30.2 107.8,33.3 107.8,35.2 107.5,36.4 106.6,37.2 105.1,37.8 102.9,37.9 102.7,37.9 
	102.1,37.8 101.3,37.6 100.1,37.4 99.5,35.7 98.9,34 98,32.3 97.1,30.5 95.9,28.7 94.5,26.7 92.8,24.8 90.9,22.7 88.7,20.7 
	86.1,18.9 83.1,17.3 79.7,15.9 76,14.8 72.1,14 68,13.5 63.7,13.3 49.5,16.3 39.4,25.4 33.3,40.6 31.3,61.8 31.9,72.7 33.8,82.7 
	36.9,91.7 41.2,99.9 46.7,106.7 53.3,111.5 60.8,114.4 69.5,115.4 75.9,114.8 82,113 87.5,109.9 92.6,105.6 93.8,104.3 94.9,102.8 
	95.9,101.1 96.9,99.2 97.8,97.2 98.6,95.4 99.2,93.8 99.8,92.3 100.2,91.1 100.6,90.2 100.8,89.7 101,89.5 104.2,89.6 106.7,90 
	108.3,90.5 109.1,91.3 "/>
</svg>
