<?xml version="1.0" encoding="UTF-8"?>
<svg width="73px" height="84px" viewBox="0 0 73 84" version="1.1" xmlns="http://www.w3.org/2000/svg" xmlns:xlink="http://www.w3.org/1999/xlink">
    <!-- Generator: Sketch 47.1 (45422) - http://www.bohemiancoding.com/sketch -->
    <title>logo-dd</title>
    <desc>Created with Sketch.</desc>
    <defs>
        <polygon id="path-1" points="27.6228571 52.9661702 0.0342857143 52.9661702 0.0342857143 0.492787234 27.6228571 0.492787234"></polygon>
        <polygon id="path-3" points="0.03375 0.2199375 0.03375 53.542125 8.8610625 53.542125 8.8610625 0.2199375 0.03375 0.2199375"></polygon>
    </defs>
    <g id="Page-1" stroke="none" stroke-width="1" fill="none" fill-rule="evenodd">
        <g id="Desktop-HD" transform="translate(-925.000000, -3236.000000)">
            <g id="logo-dd" transform="translate(925.000000, 3236.000000)">
                <polygon id="Fill-1" fill="#0A0B09" points="61 11 73 11 73 9 61 9"></polygon>
                <polyline id="Fill-2" fill="#0A0B09" points="22 21 22 0 29 0 29 3.02749815 25.3385319 3.02749815 25.3385319 8.76761683 27.7699845 8.76761683 27.7699845 11.6354509 25.3385319 11.6354509 25.3385319 17.8779273 29 17.8779273 29 21 22 21"></polyline>
                <polyline id="Fill-3" fill="#0A0B09" points="49.4048819 21 46.0055718 10.3748278 45.0461661 6.9990728 45.0461661 21 43 21 43 0 44.9538339 0 48.0538604 10.7820547 48.9543646 14.1906326 48.9543646 0 51 0 51 21 49.4048819 21"></polyline>
                <g id="Group-7" transform="translate(0.000000, 31.000000)">
                    <mask id="mask-2" fill="white">
                        <use xlink:href="#path-1"></use>
                    </mask>
                    <g id="Clip-5"></g>
                    <polygon id="Fill-4" fill="#0A0B09" mask="url(#mask-2)" points="24.2857143 21.7745426 27.6228571 21.7745426 27.6228571 0.492787234 24.2857143 0.492787234"></polygon>
                    <path d="M6.44285714,52.6803085 L6.088,51.5611064 C5.63371429,52.5190532 4.69428571,53 3.72342857,53 C1.45542857,53 0,51.3671489 0,48.8118723 L0,35.2619149 C0,32.9620532 1.78114286,31.0754787 4.17828571,31.0754787 C6.576,31.0754787 8.22457143,32.9620532 8.22457143,35.2619149 L8.22457143,39.1957553 L5.11942857,39.1957553 L5.11942857,35.135617 C5.11942857,34.6259149 4.82457143,34.2723936 4.24457143,34.2723936 C3.69085714,34.2723936 3.33542857,34.6259149 3.33542857,35.135617 L3.33542857,49.1005532 C3.33542857,49.6435213 3.69085714,50.028617 4.24457143,50.028617 C4.82457143,50.028617 5.15085714,49.6435213 5.15085714,49.1022447 L5.15085714,44.7568085 L4.30742857,44.7568085 L4.30742857,42.1975851 L8.38971429,42.1975851 L8.38971429,52.6803085 L6.44285714,52.6803085" id="Fill-6" fill="#0A0B09" mask="url(#mask-2)"></path>
                </g>
                <polyline id="Fill-8" fill="#0A0B09" points="26.4888686 84 24.2787397 74.5102787 23.5980992 71.6402193 23.5980992 84 21 84 21 63 23.8923317 63 25.8420779 72.4251881 26.4300221 75.360337 26.4300221 63 29 63 29 84 26.4888686 84"></polyline>
                <polyline id="Fill-9" fill="#0A0B09" points="48.2026969 34.1445033 48.2026969 53 45.8948501 53 45.8948501 34.1445033 43 34.1445033 43 32 51 32 51 34.1445033 48.2026969 34.1445033"></polyline>
                <polyline id="Fill-10" fill="#0A0B09" points="66.5672591 44.7079205 66.5672591 53 64.2755847 53 64.2755847 44.7079205 61 32 63.2922357 32 65.5491113 41.7751523 67.8065482 32 70 32 66.5672591 44.7079205"></polyline>
                <polygon id="Fill-11" fill="#0A0B09" points="41 75 53 75 53 72 41 72"></polygon>
                <polygon id="Fill-12" fill="#0A0B09" points="45 79 48 79 48 67 45 67"></polygon>
                <g id="Group-16">
                    <mask id="mask-4" fill="white">
                        <use xlink:href="#path-3"></use>
                    </mask>
                    <g id="Clip-14"></g>
                    <path d="M3.3091875,18.3555 C5.5074375,18.3555 5.6514375,17.8070625 5.623875,10.8354375 C5.6514375,3.8925 5.5074375,3.342375 3.3091875,3.342375 L3.3091875,18.3555 Z M2.6431875,21.4801875 L0.18225,21.4801875 L0.18225,0.2199375 L2.6431875,0.2199375 C8.4279375,0.2469375 8.8610625,2.5335 8.8610625,10.863 C8.8610625,19.1655 8.4279375,21.4509375 2.6431875,21.4801875 L2.6431875,21.4801875 Z" id="Fill-13" fill="#0A0B09" mask="url(#mask-4)"></path>
                    <path d="M5.4039375,41.4590625 C4.0651875,39.0988125 3.333375,38.2370625 3.333375,35.7834375 C3.333375,35.0499375 3.7760625,34.6995 4.32,34.6995 C4.8285,34.6995 5.21325,35.082 5.21325,35.7834375 L5.21325,37.396125 L8.0499375,37.1289375 L8.0499375,36.1018125 C8.0499375,33.29775 6.553125,31.669875 4.32,31.669875 C1.450125,31.669875 0.0815625,33.8085 0.0815625,36.4528125 C0.0815625,38.9075625 1.77075,41.8415625 3.0144375,43.8181875 C4.255875,45.9523125 5.020875,47.4525 5.020875,49.365 C5.020875,50.162625 4.6704375,50.6413125 3.9706875,50.6413125 C3.2371875,50.6413125 2.8861875,50.13225 2.8861875,49.365 L2.8861875,47.6488125 L0.0163125,47.9188125 L0.0163125,49.1113125 C0.0163125,51.948 1.5789375,53.542125 4.12875,53.542125 C6.2004375,53.542125 8.209125,52.1713125 8.209125,48.8548125 C8.209125,46.3685625 6.8085,43.8496875 5.4039375,41.4590625" id="Fill-15" fill="#0A0B09" mask="url(#mask-4)"></path>
                </g>
            </g>
        </g>
    </g>
</svg>