<?xml version="1.0" encoding="UTF-8"?>
<svg width="161px" height="47px" viewBox="0 0 161 47" version="1.1" xmlns="http://www.w3.org/2000/svg" xmlns:xlink="http://www.w3.org/1999/xlink">
    <!-- Generator: Sketch 47.1 (45422) - http://www.bohemiancoding.com/sketch -->
    <title>logo-unige</title>
    <desc>Created with Sketch.</desc>
    <defs></defs>
    <g id="Page-1" stroke="none" stroke-width="1" fill="none" fill-rule="evenodd">
        <g id="Desktop-HD" transform="translate(-354.000000, -3236.000000)">
            <g id="logo-unige" transform="translate(354.000000, 3236.000000)">
                <path d="M10.0788049,10.5486842 L11.186837,12 L12,11.3631579 L10.1957134,9 L9.55856246,9.49868421 C9.81121455,9.89671053 9.44814895,10.3763158 9,10.7164474 L9.32409612,11.1407895 L10.0788049,10.5486842" id="Fill-1" fill="#949594"></path>
                <path d="M13.0580893,10.6545922 C13.1079559,10.4024561 13.2506776,10.2534666 13.4656198,10.1152215 C13.7797222,9.91394238 14.0393725,9.99345121 14.1551547,10.2763881 C14.270937,10.5586086 14.1219103,10.8845232 13.8261497,11.0750579 C13.5974511,11.2218985 13.2736047,11.2620111 13.1750179,11.0356616 L12.4126892,11.5256079 C12.7422674,12.1903304 13.3796429,12.085035 14.0617265,11.6480945 C14.7879448,11.1810697 15.1977681,10.467639 14.9043003,9.75349212 C14.6566867,9.15108735 14.1087272,9.07301111 13.4673394,9.4841649 C13.2294699,9.6367359 13.0414671,9.8415965 12.9428802,10.0837045 L12.9337093,10.0894349 L12.8334029,9.48703008 L14.219924,8.59810699 L13.97403,8 L12,9.26641098 L12.367408,11.0979793 L13.0580893,10.6545922" id="Fill-2" fill="#949594"></path>
                <path d="M29.4573273,9.27200734 C29.1650905,9.15323387 28.8672339,9.09780625 28.6037993,9.13117594 L28.5925595,9.12665123 L28.9985999,8.76750287 L30.7028458,9.46034813 L31,8.986951 L28.5728897,8 L27.3849755,9.14305328 L28.2342885,9.48862753 C28.4696233,9.41114198 28.6916108,9.45582343 28.9557479,9.56271956 C29.3421186,9.7205186 29.4657572,9.9648526 29.3252587,10.1882598 C29.1847603,10.4122327 28.8180594,10.4444712 28.4541685,10.2962871 C28.1731716,10.1820384 27.9076296,9.94166349 28.0158134,9.75897858 L27.0786889,9.3772067 C26.7892621,9.94958173 27.3308836,10.4088392 28.1689567,10.7504543 C29.0625267,11.1135618 29.923782,11.1096026 30.2792431,10.5440147 C30.5785047,10.0666584 30.2462259,9.59269572 29.4573273,9.27200734" id="Fill-3" fill="#949594"></path>
                <path d="M32.2369121,10.5593001 C32.0912606,10.7546557 31.7958958,10.7703324 31.504593,10.536388 C31.2225747,10.3090761 31.1703491,10.0148367 31.321223,9.81284862 C31.4546885,9.63196377 31.7628196,9.62653722 32.0210462,9.83395185 C32.3158308,10.070911 32.3802424,10.3657533 32.2369121,10.5593001 Z M32.3280167,9.39560756 C31.7425096,8.92530695 31.0136722,8.84692352 30.6689832,9.30938578 C30.3550492,9.73205338 30.5053429,10.3542973 31.0624161,10.8022887 C31.3049751,10.9970414 31.6160076,11.1417493 31.8661102,11.0748219 L31.8742342,11.0814544 C31.6450218,11.3545905 31.3154202,11.5119603 30.9440381,11.2128974 C30.8587362,11.145367 30.7815584,11.0585423 30.7386173,10.9687028 C30.6927749,10.883084 30.6800086,10.787215 30.7142454,10.7064198 L30.0724507,10.190295 C29.8710919,10.6696399 30.1014649,11.157426 30.6144364,11.5692405 C31.5109761,12.2891622 32.2461966,12.0202467 32.7110046,11.396194 C33.1433165,10.8143477 33.1479588,10.0540284 32.3280167,9.39560756 L32.3280167,9.39560756 Z" id="Fill-4" fill="#949594"></path>
                <path d="M3.53151728,21.6960423 C3.99687017,21.8827587 4.33902423,21.3388763 4.60994486,20.7716542 C4.88261713,20.2001886 5.08522372,19.6060907 5.28432703,19.6853038 C5.45365242,19.7532007 5.42329062,20.0693456 5.35906375,20.3055703 C5.26622673,20.642933 5.09223029,20.9725159 4.86218131,20.8600616 L4.56148277,21.9584355 C5.14477955,22.186173 5.62531333,21.4421361 5.85419455,20.6033265 C6.07139816,19.8111959 6.10409548,18.7962787 5.54123452,18.570663 C5.06829118,18.3804102 4.72905652,18.9455104 4.45930365,19.5049526 C4.18779914,20.0714674 3.98052151,20.6570782 3.75280805,20.5644272 C3.56129519,20.4880432 3.58289878,20.1160248 3.67340028,19.7857346 C3.80068626,19.3196507 3.98227315,19.0523066 4.2917299,19.1499084 L4.59301232,18.0515346 C3.92972389,17.7926776 3.43634473,18.5444944 3.17067903,19.5120252 C2.91727482,20.4392423 2.87815482,21.433649 3.53151728,21.6960423" id="Fill-5" fill="#949594"></path>
                <path d="M3.04494316,25.9390582 L3.12204443,24.858663 C2.79575186,24.7910969 2.61626011,24.4837374 2.6520351,23.977654 C2.70261353,23.2807958 3.14671683,23.0489513 3.57169902,23.0840592 C3.9960644,23.1198295 4.40192547,23.4218897 4.35196385,24.1187479 C4.31927292,24.5725007 4.14348202,24.8851595 3.85111402,24.9189425 L3.77339594,25.9993377 C4.46484011,26.0284839 4.92744772,25.0905074 4.99097916,24.194263 C5.08165025,22.9409781 4.47840993,22.072555 3.6494171,22.0043264 C2.81980746,21.9354355 2.09999002,22.6938981 2.00931893,23.9485079 C1.9346849,25.0004193 2.31093909,25.8211487 3.04494316,25.9390582" id="Fill-6" fill="#949594"></path>
                <polyline id="Fill-7" fill="#949594" points="5.79876498 28.4349243 4.58481656 28.6212738 4.31892481 27.2379866 5.53214675 27.0509855 5.33091173 26 2 26.5147418 2.20123502 27.5657273 3.57355612 27.3533149 3.83872139 28.7372536 2.46712677 28.9496661 2.66908827 30 6 29.4852582 5.79876498 28.4349243"></polyline>
                <path d="M5.84391308,33.8808182 C5.48045807,34.0672088 5.02181246,34.0103663 4.77200926,33.3732011 C4.52335988,32.7373577 4.79162429,32.305751 5.1550793,32.1193603 C5.51853431,31.9336306 5.97775683,31.9904732 6.22698312,32.6269774 C6.47620941,33.2628208 6.20852191,33.6944275 5.84391308,33.8808182 Z M6.77620402,32.3447476 C6.30890473,31.1510542 5.47930424,30.7676976 4.76912469,31.1325474 C4.05894514,31.4980581 3.75721979,32.4617375 4.22394218,33.6560918 C4.69124148,34.8497852 5.52026505,35.23182 6.2304446,34.8676311 C6.94062415,34.5027813 7.24292641,33.538441 6.77620402,32.3447476 L6.77620402,32.3447476 Z" id="Fill-8" fill="#949594"></path>
                <polyline id="Fill-9" fill="#949594" points="8 34.8073167 7.3665033 34 5 35.747326 6.76816535 38 7.29810356 37.6087428 6.16407415 36.1633855 8 34.8073167"></polyline>
                <path d="M10.6815937,40.0911755 L9.96970695,39.4868121 L11.0246954,38.9840443 L11.033915,38.9912081 L10.6815937,40.0911755 Z M8,39.3018561 L8.83964439,40.0143276 L9.3947975,39.7701075 L10.4892986,40.7000977 L10.3246625,41.2758059 L11.1774778,42 L12,38.7053077 L11.1695752,38 L8,39.3018561 L8,39.3018561 Z" id="Fill-10" fill="#949594"></path>
                <path d="M18.2202858,41.6243907 C18.6474334,41.6996998 18.9568841,41.8924687 18.9377087,42.117272 L19.996982,42.3038588 C20.0564918,41.644623 19.2260003,41.2028844 18.3829457,41.0545142 C17.1530778,40.837579 16.2108403,41.2894337 16.0296662,42.0312847 C15.8491533,42.7731358 16.5017768,43.5054326 17.7323059,43.7223679 C18.1085397,43.7886849 18.6077603,43.7869988 18.9469658,43.5886099 L18.941676,43.8791682 L19.6247156,44 L19.9672272,42.5977891 L18.2586365,42.2971147 L18.1376334,42.79112 L18.878199,42.922068 C18.7644693,43.1446233 18.3730274,43.2367926 17.8493417,43.1440613 C17.1663022,43.0243535 16.9963688,42.5977891 17.0896008,42.2178715 C17.1821715,41.8379538 17.536585,41.5035589 18.2202858,41.6243907" id="Fill-11" fill="#949594"></path>
                <polyline id="Fill-12" fill="#949594" points="22.024239 44.3119771 21.9988726 43.770251 23.7322435 43.6747603 23.705186 43.1005917 21.9718151 43.1973067 21.9487035 42.699041 23.8455468 42.5937564 23.8173619 42 21 42.1554785 21.1330327 45 24 44.842073 23.9706877 44.2048562 22.024239 44.3119771"></polyline>
                <polyline id="Fill-13" fill="#949594" points="27.2595699 41.3026098 27.7793198 43.111001 27.7695592 43.1143046 25.9791063 41.7340601 25 42.0644202 25.8442885 45 26.7404301 44.6973902 26.2145798 42.867856 26.2249504 42.8638916 28.0215037 44.2646184 29 43.9342583 28.1563215 41 27.2595699 41.3026098"></polyline>
                <polyline id="Fill-14" fill="#949594" points="29.9409855 41.9388375 29.6659782 41.4817119 31.2115668 40.4988617 30.9206256 40.015025 29.3750369 40.9972682 29.122455 40.5759599 30.8138094 39.5014418 30.5128356 39 28 40.5972075 29.4429035 43 32 41.3748672 31.6766008 40.836394 29.9409855 41.9388375"></polyline>
                <polyline id="Fill-15" fill="#949594" points="32.9584924 36.8001321 34.0137805 38.9877767 34.0058111 38.996366 31.7982733 37.9629997 31 38.7637925 34.1193757 40 35 39.1172778 33.7574299 36 32.9584924 36.8001321"></polyline>
                <polyline id="Fill-16" fill="#949594" points="36.3780027 34.8404065 35.9199275 34.5654513 36.8850279 32.9928273 36.3997583 32.7017334 35.4352621 34.2749552 35.0146548 34.022116 36.0697991 32.3006575 35.5682127 32 34 34.5582785 36.4039885 36 38 33.3962941 37.4609458 33.0735206 36.3780027 34.8404065"></polyline>
                <polyline id="Fill-17" fill="#949594" points="36.7437687 28.9029096 38.5682951 29.4094946 38.5656364 29.4192956 36.3223662 30.192343 36 31.1779479 38.9611167 32 39.256896 31.0977029 37.4111 30.5849923 37.4144234 30.5745789 39.6782984 29.8070444 40 28.8220521 37.039548 28 36.7437687 28.9029096"></polyline>
                <path d="M39.1089294,23.0008089 C38.589906,22.9736789 38.3717926,23.6335963 38.230297,24.291314 C38.0888013,24.9548976 38.0239234,25.6170148 37.8027206,25.6052829 C37.6136478,25.5950175 37.56916,25.2701915 37.5790462,25.0128237 C37.5926397,24.6454697 37.6915013,24.2561184 37.9528666,24.2898475 L37.9973543,23.0909976 C37.349193,23.0631344 37.037779,23.9708875 37.0031774,24.8859729 C36.9710474,25.7489982 37.1786567,26.7733367 37.80581,26.8063326 C38.3328659,26.8341958 38.5435646,26.1544808 38.6850603,25.5033623 C38.826556,24.8456446 38.8994664,24.1908599 39.1527992,24.2040583 C39.3659696,24.2157901 39.4320832,24.5934095 39.4191077,24.9541644 C39.3999532,25.4637673 39.2788478,25.7929927 38.9396289,25.8010584 L38.8951412,26.9991751 C39.6310422,27.0314377 39.9560497,26.1126861 39.9955943,25.056085 C40.0332853,24.0434784 39.8367979,23.0396707 39.1089294,23.0008089" id="Fill-18" fill="#949594"></path>
                <polyline id="Fill-19" fill="#949594" points="37.1450713 23 40 22.7091546 39.8555487 22 37 22.2904074 37.1450713 23"></polyline>
                <path d="M37.4151117,21.9606003 C37.8874521,21.7672803 37.8745754,21.0784468 37.8090213,20.4426542 C37.7411261,19.8026742 37.6141151,19.1927041 37.841213,19.0991847 C38.0320221,19.0203213 38.2017603,19.3280979 38.2948236,19.6533223 C38.4271023,20.1125446 38.4165669,20.4538207 38.120403,20.6010789 L38.4311995,21.6814378 C39.0896665,21.4050669 39.1072256,20.4573103 38.832718,19.5046682 C38.5705018,18.5932027 38.1040145,17.7850272 37.4514006,18.0516274 C36.9860839,18.2414579 36.9866692,18.9163333 37.0539792,19.5577091 C37.123045,20.2046682 37.2588356,20.8174299 37.0604175,20.898387 C36.8912647,20.9667818 36.7566447,20.6980879 36.6905054,20.466383 C36.5951008,20.1348776 36.5687622,19.7496333 36.8087368,19.6707699 L36.4973551,18.590411 C35.9184894,18.8339803 35.9085393,19.7663831 36.1455874,20.5906103 C36.3697588,21.3694737 36.8520493,22.1909094 37.4151117,21.9606003" id="Fill-20" fill="#949594"></path>
                <path d="M12.100529,41.1990332 C11.9343602,41.4192811 11.9789421,41.7327627 12.1991495,41.898962 C12.4198072,42.0656117 12.7332313,42.021472 12.8989497,41.8007738 C13.0655688,41.5800755 13.0214373,41.2670443 12.8012299,41.100845 C12.5801218,40.9346457 12.2671481,40.9783349 12.100529,41.1990332" id="Fill-21" fill="#949594"></path>
                <path d="M6.9037428,14.7945037 C7.06675133,14.5711121 7.01766865,14.2589944 6.79477024,14.0964049 C6.57142154,13.933365 6.25936377,13.9820068 6.09590494,14.2053984 C5.9333467,14.42879 5.98242938,14.7409078 6.20532779,14.9039476 C6.4286765,15.0665371 6.74118457,15.0178954 6.9037428,14.7945037" id="Fill-22" fill="#949594"></path>
                <path d="M34.0960215,14.2053984 C33.9334843,14.42879 33.9821104,14.7409078 34.2054303,14.9039476 C34.4287502,15.0665371 34.7412179,15.0178954 34.9037552,14.7945037 C35.0667427,14.5711121 35.0176664,14.2589944 34.7947967,14.0964049 C34.5714768,13.933365 34.2594593,13.9820068 34.0960215,14.2053984" id="Fill-23" fill="#949594"></path>
                <polyline id="Fill-24" fill="#949594" points="22.4084316 6.99858156 22 8 23 8 23 7.51560284 22.605621 7.51843972 22.824116 7.00851064 22.605621 6.4822695 22.9927471 6.4787234 22.9927471 6 22 6 22.4084316 6.99858156"></polyline>
                <polyline id="Fill-25" fill="#949594" points="20 7.51843972 19.7114058 7.52269504 19.7114058 6.4787234 19.9798408 6.4822695 19.9798408 6 19.0175066 6 19.0175066 6.4822695 19.2848806 6.4787234 19.2848806 7.52269504 19 7.51843972 19 8 20 8 20 7.51843972"></polyline>
                <polyline id="Fill-26" fill="#949594" points="22.4055202 6.70954064 21.5923567 6.70954064 21.5958953 6 21 6 21 8 21.5958953 8 21.5923567 7.204947 22.4055202 7.204947 22.4055202 8 23 8 23 6 22.4055202 6 22.4055202 6.70954064"></polyline>
                <path d="M20.806727,4.53336444 C20.806727,4.43397107 20.8858991,4.37097527 21.0012937,4.37097527 C21.1047865,4.37097527 21.1824062,4.44190387 21.1824062,4.53336444 L21.1875809,5 L22,5 L22,4.60802613 L21.5021992,4.60802613 L21.5001294,4.50769949 C21.4970246,4.22631825 21.3531695,4 20.9981889,4 C20.7260026,4 20.5371281,4.13765749 20.5040103,4.37377508 C20.4978008,4.42370509 20.4978008,4.4764349 20.4978008,4.52823145 L20.4978008,4.60802613 L20.0005175,4.60802613 L20,5 L20.8056921,5 L20.806727,4.53336444" id="Fill-27" fill="#949594"></path>
                <path d="M21.4995054,8 C21.2245302,8 21,8.22376238 21,8.5 C21,8.77623762 21.2245302,9 21.4995054,9 C21.7754698,9 22,8.77623762 22,8.5 C22,8.22376238 21.7754698,8 21.4995054,8" id="Fill-28" fill="#949594"></path>
                <path d="M21.5002952,45.7172185 C10.3516879,45.7172185 1.28215477,36.6426618 1.28215477,25.4886053 C1.28215477,15.6214644 8.38182118,7.38673976 17.7382453,5.61730456 L18.0198235,5.96457689 L15.5906951,6.89122703 L18.0186428,7.82023958 L16.3787598,9.83890765 L18.9454306,9.4296224 L18.8604258,9.95998048 C11.4307758,11.2197286 5.75316777,17.7021454 5.75316777,25.4886053 C5.75316777,34.1757289 12.8174155,41.2440202 21.5002952,41.2440202 C30.1831748,41.2440202 37.2468322,34.1757289 37.2468322,25.4886053 C37.2468322,17.7062796 31.5763079,11.2274064 24.152561,9.96116168 L24.082314,9.44143439 L26.58287,9.84245124 L25.0096921,7.79779681 L27.373296,6.89477063 L24.9825378,5.91969135 L25.2328295,5.61139856 C34.6028307,7.36961239 41.7178452,15.6114242 41.7178452,25.4886053 C41.7178452,36.6426618 32.6483121,45.7172185 21.5002952,45.7172185 Z M18.533984,13.9364849 L18.8976154,13.3181275 L17.3946845,13.3181275 L17.570597,12.674965 C17.570597,12.365491 17.319715,12.1138958 17.0098019,12.1138958 C16.9348324,12.1138958 16.8634049,12.1292514 16.7978804,12.1564189 C16.8102769,12.100312 16.8185412,12.0465675 16.8185412,12.0052255 C16.8185412,11.8014688 16.6532543,11.6349198 16.4490068,11.6349198 C16.2447593,11.6349198 16.078882,11.8014688 16.078882,12.0052255 C16.078882,12.0465675 16.0871463,12.100312 16.0995429,12.1564189 C16.0340184,12.1292514 15.9631811,12.1138958 15.8882116,12.1138958 C15.5777082,12.1138958 15.3274165,12.365491 15.3274165,12.674965 L15.5021485,13.3181275 L15.10605,13.3181275 C14.8345071,13.3181275 14.6078278,13.5118441 14.5564708,13.7681641 C14.4738273,13.7451308 14.3876419,13.7309564 14.2979147,13.7309564 C13.7884766,13.7309564 13.3758494,14.1443758 13.3758494,14.6540629 C13.3758494,14.8129341 13.4165809,14.9629463 13.4868278,15.0934687 C13.6432602,14.8052563 13.9478605,14.609768 14.2973244,14.609768 C14.61196,14.609768 14.8882254,14.7668674 15.0552833,15.0066507 C15.0747635,15.0344088 15.0924729,15.0633482 15.1084112,15.0934687 C15.1562264,15.181468 15.1833807,15.2806887 15.2004997,15.383453 L13.335118,15.383453 C12.8250896,15.383453 12.4124624,14.9700335 12.4124624,14.4615276 L12.4124624,15.0550798 C12.4124624,15.5653575 12.8250896,15.9781863 13.335118,15.9781863 L15.1030984,15.9781863 C14.9454855,16.2604928 14.6444271,16.4524375 14.2973244,16.4524375 C14.2796151,16.4524375 14.2619057,16.4512563 14.2436061,16.4500751 C14.4100737,16.6910396 14.68811,16.8493202 15.0033359,16.8493202 C15.3970732,16.8493202 15.7323696,16.6018591 15.8645992,16.2539962 L18.3622036,16.2539962 C18.8710514,16.2539962 19.2848592,16.666825 19.2848592,17.1759215 C19.2848592,17.4133424 19.2860398,17.747031 19.0493253,18.000398 L18.8196944,18.3458985 L17.2459262,20.7750331 C16.9590352,21.1967209 16.3852532,21.3053911 15.9637714,21.0171787 C15.5434702,20.7307381 15.4330821,20.1389577 15.7199731,19.7178605 C16.0859657,19.5141038 16.2294112,19.0924159 16.1615255,18.6541913 C16.0765207,18.1120213 15.5812501,17.7387626 15.0417061,17.7936883 L14.731793,17.7866011 C12.7589748,17.7866011 11.2855594,16.4524375 11.0819022,14.5607483 C13.1639279,12.5727914 15.8102906,11.174843 18.7529893,10.6314918 L18.533984,11.9975477 L20.5392694,10.3686751 L21.2157654,12.109171 L21.2157654,14.8034845 L18.533984,13.9364849 Z M10.435512,35.4024035 C10.4555826,35.3185384 10.5063493,35.2476665 10.5795478,35.2015998 L12.5080927,34.1113536 L13.048227,34.6671075 L13.0399627,34.6730135 L13.1733729,34.7952675 L13.2725451,34.8968506 L13.2784482,34.8921258 L13.9673407,35.5258387 C14.0871738,35.6469116 14.0871738,35.8518495 13.9614376,35.9776471 C13.9006356,36.0384788 13.8191727,36.072143 13.7329874,36.072143 L13.3457436,36.072143 L13.8362918,36.5623403 L13.9024065,36.5623403 C14.2441964,36.5623403 14.5653254,36.4288649 14.8073528,36.1879004 C15.0487899,35.9457547 15.1816098,35.6250594 15.1816098,35.2825118 C15.1816098,34.601551 14.6467883,34.0493407 13.9761954,34.0097706 C13.8262565,33.8585772 13.6107931,33.6441897 13.5039468,33.5367006 C13.8109084,33.3418029 19.1561715,29.9482199 19.6538034,29.6328399 C19.4861552,31.5032676 17.8734264,33.6985248 16.3516055,35.0137892 C15.6550389,35.7106963 15.3876282,36.4885154 15.3876282,37.1617985 C15.3876282,37.7565319 15.5960079,38.2697626 15.9017888,38.575693 C16.1691995,38.8432344 16.5771042,38.9241465 16.9165328,38.7747249 L17.1308156,38.680229 L16.9649383,38.5142707 C16.6951663,38.2443668 16.599536,37.7736593 16.599536,37.4234339 C16.599536,36.7194397 16.7807614,36.3621272 17.1207803,35.9930027 C17.1927982,36.0644652 17.3445081,36.2162492 17.5564296,36.4288649 C17.4129841,36.8174792 17.3439177,37.209637 17.3439177,37.5858487 C17.3439177,38.3376815 17.6089672,39.0198236 18.0481584,39.4592294 C18.1402468,39.5507723 19.1136691,40.358712 19.5227544,40.221693 L19.8161388,40.1224723 L19.5664374,39.9399771 C19.4235822,39.8354411 18.9631399,39.2979958 18.8067076,38.9708039 C18.6815617,38.7085778 18.6071826,38.394379 18.6071826,38.0624623 C18.6071826,37.5267888 18.8261878,36.9066596 19.3096523,36.4229589 C19.3356259,36.3851606 20.4023173,33.7516787 20.9465837,32.482481 C20.9471741,32.5114204 20.9477644,32.7317139 20.9477644,32.7317139 C20.9507159,33.0305571 20.9542578,33.3258567 20.9542578,33.6152503 C20.9542578,35.1478552 20.861579,36.5085958 20.1874442,37.1824695 C19.768914,37.6012043 18.9908845,37.822679 18.9908845,37.822679 L19.1927708,38.0606905 C19.212251,38.0831333 19.5357413,38.581599 20.0593468,38.5987264 C20.1844927,38.6034512 20.2824842,38.5189955 20.3911014,38.4676133 C20.418846,39.6677109 20.6443447,40.1384185 21.0475269,40.5908175 C17.0239694,40.472107 13.3900169,38.7735437 10.7477863,36.0916328 L10.4762434,35.6457304 C10.4437763,35.5943482 10.4272476,35.5358789 10.4272476,35.4762284 C10.4272476,35.4520138 10.4301992,35.4272086 10.435512,35.4024035 Z M9.26374532,34.0593809 C9.26374532,33.964885 9.3015252,33.8644832 9.37295279,33.7894771 C9.44615131,33.7079744 9.54709444,33.661317 9.65689222,33.6571828 L10.5765962,33.6589546 C10.1167442,33.7640813 9.72064577,34.0664681 9.50282114,34.4976055 C9.3900718,34.3340095 9.27614184,34.1497426 9.26374532,34.0723741 C9.26374532,34.0676493 9.26374532,34.0629245 9.26374532,34.0593809 Z M7.52232884,22.138136 C7.52232884,22.138136 9.39184273,21.7890919 11.4260533,21.4099272 C11.4107052,21.5150539 11.4112955,21.6237241 11.4526173,21.7294414 C11.4797716,21.7997227 11.5222739,21.8576014 11.5683182,21.9107553 L7.72362478,23.4085149 C7.18585176,23.7368881 7.03060006,24.3977686 7.34051316,24.8985967 C7.49045207,25.1419236 7.72657634,25.3114255 8.00402235,25.376982 C8.28205867,25.4425385 8.56894966,25.3952906 8.81156734,25.2452784 L12.1899153,23.156329 C12.2135277,23.2602745 12.2530785,23.3606764 12.3298189,23.4451321 C12.3799953,23.5000578 12.4407973,23.5396279 12.5033703,23.5721109 L9.45795753,26.3573767 C9.07543621,26.8582048 9.16811499,27.5303067 9.63800228,27.8858474 C10.1078896,28.2419788 10.7802534,28.1486641 11.1356204,27.6785471 L13.559436,24.4739559 C13.6155156,24.5613645 13.6863528,24.6405048 13.7861153,24.6907058 C13.8398336,24.7172827 13.8959131,24.7255511 13.9514023,24.7350007 C13.9632085,24.7438597 13.9744244,24.7527187 13.9862307,24.7609871 L12.2973518,28.1640197 C12.1255714,28.7516659 12.4449295,29.3269095 12.9945087,29.4845995 C13.5446783,29.6411083 14.1190506,29.3215941 14.2760732,28.7717462 L15.2512664,25.3610359 C15.670387,25.4868335 16.1143006,25.5559336 16.5741526,25.5559336 C16.9484096,25.5559336 17.1939788,25.5246318 17.5422621,25.4401762 C17.5393106,26.0561711 17.536359,26.6414549 17.5357687,26.6951995 C17.4543058,26.7843799 14.4384086,30.0627961 14.4384086,30.0627961 C13.907129,30.4986583 13.7146878,30.5216917 13.3699463,30.1767817 L13.2695935,30.0763799 L12.3268674,30.8158101 L12.4549648,30.9439701 C12.8097415,31.2989202 13.1438573,31.5434283 13.595445,31.5877232 C12.9402002,31.9326332 12.381176,32.2273422 12.2831844,32.2787243 C12.1816509,32.1735976 11.693464,31.6668635 11.4354983,31.3999127 C11.3971281,30.728992 10.844007,30.1927279 10.1627885,30.1927279 C9.45795753,30.1927279 8.88358524,30.7667904 8.88358524,31.4719658 L8.88358524,31.5392941 L9.37413341,32.0294914 L9.37413341,31.6414678 C9.37413341,31.5552403 9.40719081,31.4743282 9.46799281,31.4134965 C9.59431929,31.2876988 9.79915709,31.2876988 9.92548357,31.4134965 C9.92548357,31.4134965 10.3026921,31.8239629 10.5535741,32.0974104 L10.5512129,32.1003633 L10.652156,32.2048994 C10.7235836,32.2816773 10.7725794,32.3348312 10.7725794,32.3348312 L10.7761212,32.3312876 L11.0600607,32.6236342 L10.6922971,32.6230436 C10.4496794,32.4216493 10.1480307,32.3141603 9.83044356,32.3271534 C9.48865368,32.3407372 9.17283747,32.4860246 8.94084538,32.7376199 C8.77260684,32.920115 8.6651703,33.1421803 8.62325824,33.381373 C7.21064481,31.0821703 6.39424516,28.3795884 6.39424516,25.4886053 C6.39424516,24.2766957 6.54182282,23.0984503 6.81277542,21.9674528 C7.00108452,22.1286864 7.24429252,22.1901087 7.52232884,22.138136 Z M8.92726823,17.1233582 C9.36941092,16.4601153 9.86350095,15.8340801 10.4018643,15.2493869 C10.6734072,16.2079294 11.2684403,17.0696137 12.0494214,17.687971 C11.9419848,17.7529369 11.849306,17.8444798 11.8003103,17.9714587 C11.7690238,18.0523707 11.7589885,18.134464 11.7631207,18.2159667 L8.92726823,17.1233582 Z M11.3924056,19.3729506 C11.3127136,19.4792584 11.2566341,19.605056 11.2566341,19.747981 C11.2566341,19.8483829 11.2843787,19.9393352 11.3257005,20.0237909 L7.41784386,20.0308781 C7.58962426,19.5885193 7.78088492,19.1573818 7.99221614,18.7362846 L11.3924056,19.3729506 Z M22.8060624,30.5783892 C22.8060624,30.0273601 23.2039317,29.5725988 23.726947,29.4786935 C23.77063,30.1324868 24.3089933,30.6510329 24.9736831,30.6510329 L27.4848647,30.6510329 C28.1489642,30.6510329 28.6879179,30.1330774 28.7321912,29.4786935 C29.2528452,29.5743706 29.6483533,30.0291319 29.6483533,30.5783892 C29.6483533,32.6939155 28.1914666,33.9719722 26.227503,34.4580354 C24.2635394,33.9719722 22.8060624,32.6939155 22.8060624,30.5783892 Z M25.06282,35.4148061 C24.6248095,35.5860798 24.3137158,36.0095395 24.3137158,36.5074146 C24.3137158,37.1553019 24.8396826,37.6815258 25.4878437,37.6815258 L26.9665719,37.6815258 C27.6153234,37.6815258 28.1412902,37.1553019 28.1412902,36.5074146 C28.1412902,36.0095395 27.8301964,35.5860798 27.3921859,35.4148061 C29.3933391,34.7173084 30.8319262,32.818532 30.8319262,30.5783892 C30.8319262,29.419043 29.9736145,28.4681783 28.8591079,28.3075353 L28.8591079,27.4535288 L27.1052949,25.8358776 L27.1052949,22.4676904 L28.1159068,22.4676904 L28.1159068,23.8910344 L29.8272174,23.8910344 L29.8272174,22.8149627 L31.0845792,22.8149627 L31.0845792,23.8910344 L32.7952995,23.8910344 L32.7952995,20.0858038 L31.0845792,20.0858038 L31.0845792,21.0065479 L29.8272174,21.0065479 L29.8272174,20.0858038 L28.4081106,20.0858038 L28.4081106,18.9181892 L29.8272174,18.9181892 L29.8272174,17.9986262 L31.0845792,17.9986262 L31.0845792,18.9181892 L32.7952995,18.9181892 L32.7952995,15.4684992 C35.1648065,18.1362358 36.6057548,21.6467575 36.6057548,25.4886053 C36.6057548,33.7032496 30.02202,40.4024163 21.8568428,40.5937705 L21.8568428,32.1044975 C22.3403072,33.6512768 23.5362766,34.8832668 25.06282,35.4148061 Z M24.2428785,10.6362166 C27.4518073,11.227997 30.3083206,12.8344268 32.4659061,15.1129585 L31.0845792,15.1129585 L31.0845792,16.1441447 L29.8272174,16.1441447 L29.8272174,15.1129585 L28.1159068,15.1129585 L28.1159068,16.5368932 L27.1052949,16.5368932 C27.1052949,16.5368932 27.1117884,14.3688035 27.1117884,14.3469514 C27.1117884,13.8591164 26.7150996,13.4622337 26.227503,13.4622337 C25.7399064,13.4622337 25.3426273,13.8591164 25.3426273,14.3469514 C25.3426273,14.3688035 25.349711,25.8358776 25.349711,25.8358776 L23.5953077,27.4535288 L23.5953077,28.3075353 C22.824362,28.4185679 22.1832846,28.9134901 21.8568428,29.5885449 L21.8568428,12.0861376 L22.4436116,10.3869837 L24.4264651,11.9999101 L24.2428785,10.6362166 Z M21.5274494,3.961855 C23.1537553,3.961855 24.4766415,5.28538781 24.4766415,6.91130741 C24.4766415,8.53781761 23.1537553,9.86135042 21.5274494,9.86135042 C19.9017339,9.86135042 18.5788477,8.53781761 18.5788477,6.91130741 C18.5788477,5.28538781 19.9017339,3.961855 21.5274494,3.961855 Z M26.1442692,4.48926008 L26.5840506,3.94709002 L24.0221023,4.3244829 L24.4276458,1.79022173 L22.4087833,3.42677212 L21.4808149,1 L20.5540272,3.42795332 L18.5392968,1.78785933 L18.9489724,4.35637526 L16.381121,3.94472762 L16.8273959,4.49516607 C7.21182543,6.63608818 0,15.2340314 0,25.4886053 C0,37.3501996 9.64508601,47 21.5002952,47 C33.3555043,47 43,37.3501996 43,25.4886053 C43,15.2239912 35.7740071,6.6189608 26.1442692,4.48926008 L26.1442692,4.48926008 Z" id="Fill-29" fill="#949594"></path>
                <path d="M55.7889748,21 C51.0650037,21 50,18.2944606 50,15.2857143 L50,5 L52.883113,5 L52.883113,15.0985273 C52.883113,17.0816327 53.5039162,18.4810496 55.9889249,18.4810496 C58.2069344,18.4810496 59.1384385,17.5014577 59.1384385,14.81984 L59.1384385,5 L62,5 L62,14.6326531 C62,18.9241983 59.7370915,21 55.7889748,21" id="Fill-30" fill="#1A1919"></path>
                <path d="M73.4754961,21 C73.4754961,21 68.0047801,10.522963 67.575443,9.48 C67.6617739,10.854207 67.7046497,13.3674074 67.7046497,15.2867996 L67.7046497,21 L65,21 L65,5 L68.5453624,5 C68.5453624,5 73.9083096,15.1925926 74.4454155,16.4014815 C74.3376467,14.7896296 74.2953503,11.9451852 74.2953503,9.97777778 L74.2953503,5 L77,5 L77,21 L73.4754961,21" id="Fill-31" fill="#1A1919"></path>
                <polygon id="Fill-32" fill="#1A1919" points="81 21 84 21 84 5 81 5"></polygon>
                <path d="M93.6791846,21 L90.297692,21 L85,5 L88.200765,5 L91.1544747,14.362963 C91.4477768,15.2630959 91.7861086,16.3303704 92.0562872,17.4912441 L92.101317,17.4912441 C92.3270744,16.4014815 92.5747381,15.5244444 93.0031295,14.1733333 L96.001869,5 L99,5 L93.6791846,21" id="Fill-33" fill="#1A1919"></path>
                <polyline id="Fill-34" fill="#1A1919" points="101 21 101 5 109 5 109 7.58431149 103.83394 7.58431149 103.83394 11.5185185 108.738029 11.5185185 108.738029 14.0311111 103.83394 14.0311111 103.83394 18.3688889 109 18.3688889 109 21 101 21"></polyline>
                <path d="M116.113652,7.49779087 C115.681798,7.49779087 115.249331,7.52135493 114.954272,7.56848306 L114.954272,12.1634757 C115.158543,12.1870398 115.5677,12.2106038 116.022251,12.2106038 C117.795059,12.2106038 118.886348,11.2680412 118.886348,9.78350515 C118.886348,8.25184094 117.977247,7.49779087 116.113652,7.49779087 Z M119.340286,21 L115.068369,14.4256259 L114.954272,14.4256259 L114.954272,21 L112,21 L112,5.09425626 C113.20416,5.02295986 114.635902,5 116.408711,5 C119.795449,5 121.976801,6.22593558 121.976801,9.47717231 C121.976801,11.8335788 120.386181,13.5301915 118.068035,13.9072165 C118.499888,14.4963181 118.931129,15.1089838 119.317589,15.6509573 L123,21 L119.340286,21 L119.340286,21 Z" id="Fill-35" fill="#1A1919"></path>
                <path d="M127.305852,21 C126.281804,21 125.258331,20.8846338 124.362072,20.6327116 L124.533035,17.8550933 C125.3441,18.1535151 126.495363,18.4060258 127.540134,18.4060258 C128.947554,18.4060258 130.035497,17.7868153 130.035497,16.3635728 C130.035497,13.4017217 124,14.7560976 124,9.65997131 C124,6.90530846 126.026223,5 129.481164,5 C130.291653,5 131.229933,5.11477762 132.083594,5.27546628 L131.93393,7.89239598 C131.123441,7.63988522 130.227758,7.47919656 129.352798,7.47919656 C127.753694,7.47919656 126.943204,8.25968436 126.943204,9.3615495 C126.943204,12.1391679 133,11.1061693 133,15.9491962 C133,18.8651363 130.845987,21 127.305852,21" id="Fill-36" fill="#1A1919"></path>
                <polygon id="Fill-37" fill="#1A1919" points="135 21 138 21 138 5 135 5"></polygon>
                <polyline id="Fill-38" fill="#1A1919" points="146.990047 7.6317189 146.990047 21 144.010571 21 144.010571 7.6317189 140 7.6317189 140 5 151 5 151 7.6317189 146.990047 7.6317189"></polyline>
                <path d="M155.986167,4.26112911 L155.027106,2.56097561 L158.841554,0 L159.997345,2.04937745 L155.986167,4.26112911 Z M153,21 L153,5.28492239 L161,5.28492239 L161,7.82321337 L155.833589,7.82321337 L155.833589,11.6873614 L160.737879,11.6873614 L160.737879,14.1552106 L155.833589,14.1552106 L155.833589,18.4157428 L161,18.4157428 L161,21 L153,21 L153,21 Z" id="Fill-39" fill="#1A1919"></path>
                <path d="M54.8514126,32.5534407 C54.1549521,32.5534407 53.5049224,32.5768668 53.0179953,32.6237189 L53.0179953,43.2825769 C53.4352763,43.3528551 54.0620908,43.3997072 54.6656898,43.3997072 C57.6146344,43.3997072 59.7498512,41.7130307 59.7498512,37.9648609 C59.7498512,34.568082 58.4265763,32.5534407 54.8514126,32.5534407 Z M54.3644856,46 C52.7388159,46 51.3226796,45.9297218 50,45.8828697 L50,30.1171303 C51.2298182,30.0702782 53.1340721,30 55.0603507,30 C59.9123586,30 63,32.1786237 63,37.7306003 C63,43.1654466 59.4718623,46 54.3644856,46 L54.3644856,46 Z" id="Fill-40" fill="#1A1919"></path>
                <polyline id="Fill-41" fill="#1A1919" points="66 46 66 30 74 30 74 32.5843115 68.8337875 32.5843115 68.8337875 36.5185185 73.7389786 36.5185185 73.7389786 39.0311111 68.8337875 39.0311111 68.8337875 43.3688889 74 43.3688889 74 46 66 46"></polyline>
                <path d="M94.47669,33.4539551 C93.25,32.9698937 91.8409091,32.6706021 90.4090909,32.6706021 C87.3857809,32.6706021 85.2039627,34.6044864 85.2039627,38.0802834 C85.2039627,41.3730815 86.9772727,43.3069658 90.0903263,43.3069658 C90.8175991,43.3069658 91.4545455,43.214876 92.0448718,43.0306966 L92.0448718,37.620425 L95,37.620425 L95,45.0336482 C93.47669,45.6546635 91.5903263,46 89.75,46 C84.8863636,46 82,43.0991736 82,38.3571429 C82,33.4769776 85.2721445,30 90.5903263,30 C92.1130536,30 93.6136364,30.2762692 94.9312354,30.6682409 L94.47669,33.4539551" id="Fill-42" fill="#1A1919"></path>
                <polyline id="Fill-43" fill="#1A1919" points="99 46 99 30 107 30 107 32.5843115 101.833787 32.5843115 101.833787 36.5185185 106.73842 36.5185185 106.73842 39.0311111 101.833787 39.0311111 101.833787 43.3688889 107 43.3688889 107 46 99 46"></polyline>
                <path d="M119.177523,46 C119.177523,46 113.255963,35.522963 112.790826,34.48 C112.883257,35.854207 112.930367,38.3674074 112.930367,40.2867996 L112.930367,46 L110,46 L110,30 L113.84633,30 C113.84633,30 119.651606,40.1925926 120.233028,41.4008737 C120.116147,39.7896296 120.069633,36.9451852 120.069633,34.9777778 L120.069633,30 L123,30 L123,46 L119.177523,46" id="Fill-44" fill="#1A1919"></path>
                <path d="M131.860816,29.2844107 L127.849637,27.072659 L129.049189,25 L132.841811,27.5609756 L131.860816,29.2844107 Z M127,46 L127,30.2849224 L135,30.2849224 L135,32.8232134 L129.833426,32.8232134 L129.833426,36.6873614 L134.73896,36.6873614 L134.73896,39.1552106 L129.833426,39.1552106 L129.833426,43.4157428 L135,43.4157428 L135,46 L127,46 L127,46 Z" id="Fill-45" fill="#1A1919"></path>
                <path d="M144.679329,46 L141.298125,46 L136,30 L139.20142,30 L142.154265,39.362963 C142.447353,40.2630959 142.785531,41.3303704 143.056652,42.4918519 L143.101743,42.4918519 C143.326617,41.4008737 143.574614,40.5244444 144.002973,39.1733333 L147.001486,30 L150,30 L144.679329,46" id="Fill-46" fill="#1A1919"></path>
                <polyline id="Fill-47" fill="#1A1919" points="153 46 153 30 161 30 161 32.5843115 155.833787 32.5843115 155.833787 36.5185185 160.73842 36.5185185 160.73842 39.0311111 155.833787 39.0311111 155.833787 43.3688889 161 43.3688889 161 46 153 46"></polyline>
            </g>
        </g>
    </g>
</svg>