<?xml version="1.0" encoding="UTF-8"?>
<svg width="257px" height="70px" viewBox="0 0 257 70" version="1.1" xmlns="http://www.w3.org/2000/svg" xmlns:xlink="http://www.w3.org/1999/xlink">
    <!-- Generator: Sketch 47.1 (45422) - http://www.bohemiancoding.com/sketch -->
    <title>logo-fnsnf</title>
    <desc>Created with Sketch.</desc>
    <defs></defs>
    <g id="Page-1" stroke="none" stroke-width="1" fill="none" fill-rule="evenodd">
        <g id="Desktop-HD" transform="translate(-733.000000, -3422.000000)">
            <g id="logo-fnsnf" transform="translate(735.000000, 3424.000000)">
                <polyline id="Fill-1" fill="#15498D" points="64.7811195 40.3759071 60.6207185 40.3759071 60.6207185 44.0159652 64.0292398 44.0159652 64.0292398 45.3727141 60.6207185 45.3727141 60.6207185 51 59 51 59 39 65 39 64.7811195 40.3759071"></polyline>
                <path d="M73.7408163,48.5801105 C73.9795918,48.0480663 74.0530612,47.519337 74.0530612,46.6243094 C74.0530612,45.5469613 73.9244898,44.8508287 73.6306122,44.3038674 C73.1897959,43.5248619 72.455102,43.2082873 71.4265306,43.2082873 C70.544898,43.2082873 69.7918367,43.5563536 69.4061224,44.121547 C69.0571429,44.6353591 68.9102041,45.3480663 68.9102041,46.3756906 C68.9102041,47.5359116 69.1306122,48.3961326 69.5163265,48.9944751 C69.8653061,49.5414365 70.6,49.8381215 71.5734694,49.8381215 C72.6571429,49.8381215 73.3918367,49.441989 73.7408163,48.5801105 Z M68.3408163,49.8729282 C67.422449,48.9944751 67,47.9171271 67,46.4751381 C67,43.6906077 68.6897959,42 71.4632653,42 C73.0244898,42 74.144898,42.4640884 74.9530612,43.359116 C75.6510204,44.0883978 76,45.1160221 76,46.5082873 C76,47.9171271 75.6877551,48.9116022 75.0081633,49.6574586 C74.2,50.5690608 73.1714286,51 71.5734694,51 C70.122449,51 69.1489796,50.6519337 68.3408163,49.8729282 L68.3408163,49.8729282 Z" id="Fill-2" fill="#15498D"></path>
                <path d="M81.545,51 L79.295,46.5 C78.83,45.6085551 78.305,44.3441065 78.245,44.1730038 C78.275,44.634981 78.32,45.5589354 78.335,46.6882129 L78.395,51 L77,51 L77,42 L78.59,42 L80.885,46.5325095 C81.35,47.4581749 81.725,48.3821293 81.83,48.621673 C81.815,48.4163498 81.71,47.269962 81.695,46.2091255 L81.65,42 L83,42 L83,51 L81.545,51" id="Fill-3" fill="#15498D"></path>
                <path d="M91.6220096,44.1045627 C91.1028708,43.4697719 90.5167464,43.28327 89.6124402,43.28327 L88.5741627,43.28327 L88.5741627,49.6996198 L89.7966507,49.6996198 C90.0813397,49.6996198 90.3995215,49.6653992 90.6339713,49.5952471 C91.5717703,49.3574144 92.2751196,48.5190114 92.2751196,46.6197719 C92.2751196,45.4391635 92.0909091,44.6692015 91.6220096,44.1045627 Z M91.4712919,42.3079848 C92.777512,42.7186312 94,43.8290875 94,46.5 C94,49.4087452 92.2248804,50.6406844 91.1363636,50.8785171 C90.7511962,50.9828897 90.215311,51 89.562201,51 L87,51 L87,42 L88.9760766,42 C89.8971292,42 90.7511962,42 91.4712919,42.3079848 L91.4712919,42.3079848 Z" id="Fill-4" fill="#15498D"></path>
                <path d="M104.740816,48.5801105 C104.979592,48.0480663 105.053061,47.519337 105.053061,46.6243094 C105.053061,45.5469613 104.92449,44.8508287 104.630612,44.3038674 C104.189796,43.5248619 103.455102,43.2082873 102.426531,43.2082873 C101.544898,43.2082873 100.791837,43.5563536 100.406122,44.121547 C100.057143,44.6353591 99.9102041,45.3480663 99.9102041,46.3756906 C99.9102041,47.5359116 100.130612,48.3961326 100.516327,48.9944751 C100.865306,49.5414365 101.6,49.8381215 102.573469,49.8381215 C103.657143,49.8381215 104.391837,49.441989 104.740816,48.5801105 Z M99.3408163,49.8729282 C98.422449,48.9944751 98,47.9171271 98,46.4751381 C98,43.6906077 99.6897959,42 102.463265,42 C104.02449,42 105.144898,42.4640884 105.953061,43.359116 C106.65102,44.0883978 107,45.1160221 107,46.5082873 C107,47.9171271 106.687755,48.9116022 106.008163,49.6574586 C105.2,50.5690608 104.171429,51 102.573469,51 C101.122449,51 100.14898,50.6519337 99.3408163,49.8729282 L99.3408163,49.8729282 Z" id="Fill-5" fill="#15498D"></path>
                <path d="M115.5465,51 L113.2965,46.5 C112.8315,45.6085551 112.3065,44.3441065 112.245,44.1730038 C112.2765,44.634981 112.3215,45.5589354 112.335,46.6882129 L112.3965,51 L111,51 L111,42 L112.59,42 L114.8865,46.5325095 C115.3515,47.4581749 115.7265,48.3821293 115.8315,48.621673 C115.815,48.4163498 115.71,47.269962 115.6965,46.2091255 L115.6515,42 L117,42 L117,51 L115.5465,51" id="Fill-6" fill="#15498D"></path>
                <path d="M124.472837,43.4516129 C124.418511,43.6907021 123.169014,47.1404175 123.096579,47.3795066 L125.830986,47.3795066 C125.722334,47.0721063 124.527163,43.6907021 124.472837,43.4516129 Z M127.134809,51 L126.229376,48.6603416 L122.661972,48.6603416 L121.756539,51 L120,51 L123.549296,42 L125.52495,42 L129,51 L127.134809,51 L127.134809,51 Z" id="Fill-7" fill="#15498D"></path>
                <path d="M134.607433,51 L129,51 L129,49.8536122 L132.690133,44.0703422 C132.911541,43.7452471 133.099974,43.4372624 133.241298,43.28327 C133.051295,43.3003802 132.752944,43.3003802 132.314839,43.3003802 L129.141324,43.3003802 L129.502486,42 L134.919916,42 L134.919916,43.1977186 L131.278461,48.9980989 C131.074326,49.3060837 130.885894,49.5798479 130.758702,49.7338403 C130.962837,49.71673 131.278461,49.6996198 131.592515,49.6996198 L135,49.6996198 L134.607433,51" id="Fill-8" fill="#15498D"></path>
                <polygon id="Fill-9" fill="#15498D" points="138 51 140 51 140 42 138 42"></polygon>
                <path d="M148.740355,48.5801105 C148.979179,48.0480663 149.052664,47.519337 149.052664,46.6243094 C149.052664,45.5469613 148.924066,44.8508287 148.630129,44.3038674 C148.191059,43.5248619 147.454378,43.2082873 146.425597,43.2082873 C145.543784,43.2082873 144.79057,43.5563536 144.404776,44.121547 C144.057563,44.6353591 143.910594,45.3480663 143.910594,46.3756906 C143.910594,47.5359116 144.12921,48.3961326 144.51684,48.9944751 C144.864054,49.5414365 145.598898,49.8381215 146.572566,49.8381215 C147.658298,49.8381215 148.391304,49.441989 148.740355,48.5801105 Z M143.339253,49.8729282 C142.420698,48.9944751 142,47.9171271 142,46.4751381 C142,43.6906077 143.688304,42 146.462339,42 C148.023882,42 149.144519,42.4640884 149.954685,43.359116 C150.650949,44.0883978 151,45.1160221 151,46.5082873 C151,47.9171271 150.687691,48.9116022 150.007961,49.6574586 C149.199633,50.5690608 148.170851,51 146.572566,51 C145.121249,51 144.147581,50.6519337 143.339253,49.8729282 L143.339253,49.8729282 Z" id="Fill-10" fill="#15498D"></path>
                <path d="M157.545,51 L155.295,46.5 C154.83,45.6085551 154.305,44.3441065 154.245,44.1730038 C154.275,44.634981 154.32,45.5589354 154.335,46.6882129 L154.395,51 L153,51 L153,42 L154.59,42 L156.885,46.5325095 C157.35,47.4581749 157.725,48.3821293 157.83,48.621673 C157.8165,48.4163498 157.71,47.269962 157.695,46.2091255 L157.65,42 L159,42 L159,51 L157.545,51" id="Fill-11" fill="#15498D"></path>
                <path d="M166.473748,43.4516129 C166.419433,43.6907021 165.170187,47.1404175 165.095957,47.3795066 L167.831623,47.3795066 C167.722993,47.0721063 166.528063,43.6907021 166.473748,43.4516129 Z M169.135184,51 L168.229934,48.6603416 L164.663247,48.6603416 L163.757996,51 L162,51 L165.548582,42 L167.523838,42 L171,51 L169.135184,51 L169.135184,51 Z" id="Fill-12" fill="#15498D"></path>
                <polyline id="Fill-13" fill="#15498D" points="176.76183 51 172 51 172 42 173.498423 42 173.498423 49.6825095 177 49.6825095 176.76183 51"></polyline>
                <polyline id="Fill-14" fill="#15498D" points="179 51 179 42 184.856213 42 184.627219 43.3174905 180.668639 43.3174905 180.668639 45.6444867 183.968639 45.6444867 183.968639 46.9602662 180.686391 46.9602662 180.686391 49.6311787 185 49.6311787 185 51 179 51"></polyline>
                <path d="M194.535502,50.4937398 C193.903823,50.8366903 193.124199,51 192.22655,51 C191.1128,51 189.982427,50.7387044 189,50.2308111 L189.600095,49.0402831 C190.512705,49.5138813 191.343861,49.742515 192.308003,49.742515 C192.891475,49.742515 193.272144,49.6608601 193.62123,49.4648884 C194.036808,49.2362548 194.271194,48.9096353 194.271194,48.4850299 C194.271194,47.8644529 193.82237,47.4725095 192.723581,47.194883 L191.476846,46.8845944 C190.680598,46.6722918 190.065543,46.2966794 189.716457,45.7740882 C189.465448,45.4148068 189.332463,45.0228634 189.332463,44.580294 C189.332463,43.0631464 190.712182,42 192.657089,42 C193.789124,42 195.017573,42.3282526 195.800522,42.8508438 L195.084066,43.9450191 C194.304441,43.4877518 193.506531,43.2591181 192.723581,43.2591181 C191.711232,43.2591181 191.029684,43.6837235 191.029684,44.3696244 C191.029684,44.9085465 191.410354,45.200871 192.409404,45.4801306 L193.606269,45.7740882 C194.287818,45.9520958 194.969366,46.2476864 195.366659,46.6559608 C195.765614,47.0479042 196,47.6194883 196,48.2074034 C196,49.1545999 195.451437,50.0201415 194.535502,50.4937398" id="Fill-15" fill="#15498D"></path>
                <path d="M203.251067,51 L201.65928,51 L198,42 L199.866233,42 L201.822118,46.7565827 C202.189876,47.6260655 202.464322,48.6148892 202.499085,48.7512787 C202.537508,48.5978405 202.793657,47.658458 203.159585,46.8060239 L205.227079,42 L207,42 L203.251067,51" id="Fill-16" fill="#15498D"></path>
                <polygon id="Fill-17" fill="#15498D" points="208 51 210 51 210 42 208 42"></polygon>
                <path d="M216.607433,51 L211,51 L211,49.8536122 L214.690133,44.0703422 C214.911541,43.7452471 215.099974,43.4372624 215.241298,43.28327 C215.052866,43.3003802 214.752944,43.3003802 214.314839,43.3003802 L211.141324,43.3003802 L211.504057,42 L216.919916,42 L216.919916,43.1977186 L213.278461,48.9980989 C213.074326,49.3060837 212.885894,49.5798479 212.760272,49.7338403 C212.962837,49.71673 213.278461,49.6996198 213.592515,49.6996198 L217,49.6996198 L216.607433,51" id="Fill-18" fill="#15498D"></path>
                <path d="M225.607433,51 L220,51 L220,49.8536122 L223.690133,44.0703422 C223.911541,43.7452471 224.098404,43.4372624 224.241298,43.28327 C224.052866,43.3003802 223.752944,43.3003802 223.313269,43.3003802 L220.141324,43.3003802 L220.504057,42 L225.919916,42 L225.919916,43.1977186 L222.278461,48.9980989 C222.074326,49.3060837 221.885894,49.5798479 221.760272,49.7338403 C221.962837,49.71673 222.278461,49.6996198 222.590945,49.6996198 L226,49.6996198 L225.607433,51" id="Fill-19" fill="#15498D"></path>
                <polyline id="Fill-20" fill="#15498D" points="230 51 230 42 235.859763 42 235.627219 43.3174905 231.668639 43.3174905 231.668639 45.6444867 234.972189 45.6444867 234.972189 46.9602662 231.686391 46.9602662 231.686391 49.6311787 236 49.6311787 236 51 230 51"></polyline>
                <path d="M239.39267,43.28327 L239.39267,46.0209125 L240.154076,46.0209125 C240.931937,46.0209125 241.350785,45.918251 241.649963,45.661597 C241.904263,45.4391635 242.053852,45.0798479 242.053852,44.6007605 C242.053852,44.0344106 241.769634,43.5912548 241.29095,43.4201521 C241.02169,43.3174905 240.707554,43.28327 240.260284,43.28327 L239.39267,43.28327 Z M242.293194,51 C242.070307,50.5551331 241.816006,50.1102662 241.545251,49.6140684 C240.872102,48.3821293 240.468212,47.8157795 240.079282,47.4752852 C239.854899,47.2511407 239.660434,47.1826996 239.39267,47.1501901 L239.39267,51 L238,51 L238,42 L240.348542,42 C241.530292,42 242.143605,42.1539924 242.60733,42.5458175 C243.160808,43.0095057 243.506358,43.7281369 243.506358,44.5665399 C243.506358,46.0551331 242.652206,47.013308 241.322364,47.081749 C241.455497,47.1826996 241.605086,47.338403 241.709798,47.4923954 C241.964099,47.851711 242.412865,48.5190114 242.831713,49.1520913 C243.280479,49.8861217 243.968586,50.9486692 244,51 L242.293194,51 L242.293194,51 Z" id="Fill-21" fill="#15498D"></path>
                <path d="M252.739441,48.5801105 C252.978168,48.0480663 253.051622,47.519337 253.051622,46.6243094 C253.051622,45.5469613 252.923077,44.8508287 252.629259,44.3038674 C252.188533,43.5248619 251.453989,43.2082873 250.425627,43.2082873 C249.544175,43.2082873 248.791267,43.5563536 248.405632,44.121547 C248.056723,44.6353591 247.909814,45.3480663 247.909814,46.3756906 C247.909814,47.5359116 248.130178,48.3961326 248.515813,48.9944751 C248.864721,49.5414365 249.599265,49.8381215 250.572536,49.8381215 C251.655989,49.8381215 252.390533,49.441989 252.739441,48.5801105 Z M247.340543,49.8729282 C246.422363,48.9944751 246,47.9171271 246,46.4751381 C246,43.6906077 247.689451,42 250.462355,42 C252.023261,42 253.14344,42.4640884 253.951438,43.359116 C254.649255,44.0883978 255,45.1160221 255,46.5082873 C255,47.9171271 254.685982,48.9116022 254.006529,49.6574586 C253.198531,50.5690608 252.170169,51 250.572536,51 C249.121812,51 248.148541,50.6519337 247.340543,49.8729282 L247.340543,49.8729282 Z" id="Fill-22" fill="#15498D"></path>
                <path d="M60.4455959,60.3003802 L60.4455959,63.3271863 L61.7512953,63.3271863 C62.4352332,63.3271863 62.8082902,63.1749049 63.0569948,62.8840304 C63.3056995,62.5931559 63.3989637,62.2338403 63.3989637,61.8060837 C63.3989637,61.2927757 63.2435233,60.9334601 62.9637306,60.6768061 C62.6388601,60.3859316 62.1880829,60.3003802 61.5181347,60.3003802 L60.4455959,60.3003802 Z M63.880829,63.9961977 C63.2901554,64.4752852 62.8082902,64.6104563 61.7823834,64.6104563 L60.4455959,64.6104563 L60.4455959,68 L59,68 L59,59 L61.3782383,59 C62.8393782,59 63.2590674,59.1180608 63.7409326,59.4277567 C64.5336788,59.8897338 65,60.7110266 65,61.7034221 C65,62.7642586 64.5507772,63.5513308 63.880829,63.9961977 L63.880829,63.9961977 Z" id="Fill-23" fill="#15498D"></path>
                <polyline id="Fill-24" fill="#15498D" points="68 68 68 59 73.8579882 59 73.6272189 60.3174905 69.6686391 60.3174905 69.6686391 62.6444867 72.9704142 62.6444867 72.9704142 63.9602662 69.6863905 63.9602662 69.6863905 66.6311787 74 66.6311787 74 68 68 68"></polyline>
                <path d="M77.3915212,60.28327 L77.3915212,63.0209125 L78.1546135,63.0209125 C78.9326683,63.0209125 79.3516209,62.918251 79.6508728,62.661597 C79.9052369,62.4391635 80.0548628,62.0798479 80.0548628,61.6007605 C80.0548628,61.0361217 79.7705736,60.5912548 79.2917706,60.4201521 C79.0224439,60.3174905 78.7082294,60.28327 78.2593516,60.28327 L77.3915212,60.28327 Z M80.2942643,68 C80.0698254,67.5551331 79.8154613,67.1102662 79.5461347,66.6140684 C78.872818,65.3821293 78.4688279,64.8157795 78.0798005,64.4752852 C77.8553616,64.2511407 77.6608479,64.1826996 77.3915212,64.1501901 L77.3915212,68 L76,68 L76,59 L78.3491272,59 C79.5311721,59 80.1446384,59.1539924 80.6084788,59.5458175 C81.1620948,60.0095057 81.5062344,60.7281369 81.5062344,61.5665399 C81.5062344,63.0551331 80.6533666,64.013308 79.3216958,64.081749 C79.4563591,64.1826996 79.605985,64.338403 79.7107232,64.4923954 C79.9650873,64.851711 80.4139651,65.5190114 80.8329177,66.1520913 C81.2817955,66.8861217 81.9700748,67.9486692 82,68 L80.2942643,68 L80.2942643,68 Z" id="Fill-25" fill="#15498D"></path>
                <polyline id="Fill-26" fill="#15498D" points="93.7634069 68 89 68 89 59 90.4984227 59 90.4984227 66.6825095 94 66.6825095 93.7634069 68"></polyline>
                <path d="M99.472837,60.4516129 C99.4185111,60.6907021 98.1690141,64.1404175 98.0965795,64.3795066 L100.830986,64.3795066 C100.722334,64.0721063 99.527163,60.6907021 99.472837,60.4516129 Z M102.134809,68 L101.229376,65.6603416 L97.6619718,65.6603416 L96.7565392,68 L95,68 L98.5492958,59 L100.523139,59 L104,68 L102.134809,68 L102.134809,68 Z" id="Fill-27" fill="#15498D"></path>
                <path d="M110.391521,60.28327 L110.391521,63.0209125 L111.154613,63.0209125 C111.932668,63.0209125 112.350125,62.918251 112.650873,62.661597 C112.905237,62.4391635 113.054863,62.0798479 113.054863,61.6007605 C113.054863,61.0361217 112.770574,60.5912548 112.291771,60.4201521 C112.022444,60.3174905 111.708229,60.28327 111.259352,60.28327 L110.391521,60.28327 Z M113.294264,68 C113.069825,67.5551331 112.815461,67.1102662 112.546135,66.6140684 C111.872818,65.3821293 111.468828,64.8157795 111.0798,64.4752852 C110.853865,64.2511407 110.660848,64.1826996 110.391521,64.1501901 L110.391521,68 L109,68 L109,59 L111.349127,59 C112.531172,59 113.144638,59.1539924 113.608479,59.5458175 C114.162095,60.0095057 114.506234,60.7281369 114.506234,61.5665399 C114.506234,63.0551331 113.653367,64.013308 112.321696,64.081749 C112.456359,64.1826996 112.605985,64.338403 112.710723,64.4923954 C112.965087,64.851711 113.413965,65.5190114 113.832918,66.1520913 C114.281796,66.8861217 114.968579,67.9486692 115,68 L113.294264,68 L113.294264,68 Z" id="Fill-28" fill="#15498D"></path>
                <polygon id="Fill-29" fill="#15498D" points="117 68 119 68 119 59 117 59"></polygon>
                <path d="M125.263133,68 C124.055889,68 123.048453,67.6360963 122.292876,66.92483 C121.453346,66.1308583 121,64.989524 121,63.6331557 C121,62.5745267 121.26865,61.6647675 121.755577,60.920419 C122.509475,59.7294615 123.82082,59 125.331974,59 C126.253778,59 127.227633,59.2663113 127.816982,59.6947252 L127.044615,60.7384672 C126.507316,60.4076457 125.968338,60.2405808 125.348765,60.2405808 C124.423603,60.2405808 123.602543,60.688844 123.182778,61.4662746 C122.880547,61.9625069 122.744543,62.6076089 122.744543,63.5339092 C122.744543,64.7579489 122.92924,65.3865098 123.449748,65.9637934 C123.955145,66.5278441 124.608299,66.8090425 125.414248,66.8090425 C126.102663,66.8090425 126.673543,66.6105495 127.246102,66.2631869 L128,67.2225694 C127.330055,67.7353428 126.354521,68 125.263133,68" id="Fill-30" fill="#15498D"></path>
                <polyline id="Fill-31" fill="#15498D" points="130 68 130 59 135.85803 59 135.627329 60.3174905 131.668146 60.3174905 131.668146 62.6444867 134.970719 62.6444867 134.970719 63.9602662 131.685892 63.9602662 131.685892 66.6311787 136 66.6311787 136 68 130 68"></polyline>
                <path d="M140.391521,60.28327 L140.391521,63.0209125 L141.153117,63.0209125 C141.932668,63.0209125 142.350125,62.918251 142.649377,62.661597 C142.903741,62.4391635 143.054863,62.0798479 143.054863,61.6007605 C143.054863,61.0361217 142.769077,60.5912548 142.290274,60.4201521 C142.020948,60.3174905 141.706733,60.28327 141.259352,60.28327 L140.391521,60.28327 Z M143.292768,68 C143.069825,67.5551331 142.815461,67.1102662 142.544638,66.6140684 C141.872818,65.3821293 141.467332,64.8157795 141.0798,64.4752852 C140.853865,64.2511407 140.659352,64.1826996 140.391521,64.1501901 L140.391521,68 L139,68 L139,59 L141.347631,59 C142.529676,59 143.143142,59.1539924 143.608479,59.5458175 C144.160599,60.0095057 144.506234,60.7281369 144.506234,61.5665399 C144.506234,63.0551331 143.65187,64.013308 142.321696,64.081749 C142.454863,64.1826996 142.604489,64.338403 142.709227,64.4923954 C142.963591,64.851711 143.412469,65.5190114 143.831421,66.1520913 C144.280299,66.8861217 144.968579,67.9486692 145,68 L143.292768,68 L143.292768,68 Z" id="Fill-32" fill="#15498D"></path>
                <path d="M151.263789,68 C150.053477,68 149.046283,67.6360963 148.290887,66.92483 C147.451559,66.1308583 147,64.989524 147,63.6331557 C147,62.5745267 147.268585,61.6647675 147.755396,60.920419 C148.509113,59.7294615 149.818465,59 151.330935,59 C152.254197,59 153.227818,59.2663113 153.813669,59.6947252 L153.041487,60.7384672 C152.504317,60.4076457 151.968825,60.2405808 151.347722,60.2405808 C150.42446,60.2405808 149.601918,60.688844 149.182254,61.4662746 C148.880096,61.9625069 148.745803,62.6076089 148.745803,63.5339092 C148.745803,64.7579489 148.928777,65.3865098 149.450839,65.9637934 C149.952758,66.5278441 150.607434,66.8090425 151.414868,66.8090425 C152.103118,66.8090425 152.673861,66.6105495 153.242926,66.2631869 L154,67.2225694 C153.326859,67.7353428 152.353237,68 151.263789,68" id="Fill-33" fill="#15498D"></path>
                <path d="M158.472837,60.4516129 C158.4167,60.6907021 157.169014,64.1404175 157.096579,64.3795066 L159.830986,64.3795066 C159.720523,64.0721063 158.527163,60.6907021 158.472837,60.4516129 Z M161.132998,68 L160.227565,65.6603416 L156.661972,65.6603416 L155.756539,68 L154,68 L157.549296,59 L159.523139,59 L163,68 L161.132998,68 L161.132998,68 Z" id="Fill-34" fill="#15498D"></path>
                <path d="M173.536817,67.4937398 C172.906651,67.8366903 172.123515,68 171.225653,68 C170.111639,68 168.980998,67.7387044 168,67.2308111 L168.598575,66.0402831 C169.514727,66.5138813 170.346081,66.742515 171.310451,66.742515 C171.890736,66.742515 172.273159,66.6608601 172.62399,66.4648884 C173.039667,66.2362548 173.270784,65.9096353 173.270784,65.4850299 C173.270784,64.8644529 172.821853,64.4725095 171.726128,64.194883 L170.479097,63.8845944 C169.679335,63.6722918 169.064133,63.2966794 168.714964,62.7740882 C168.467221,62.4148068 168.334204,62.0228634 168.334204,61.580294 C168.334204,60.0631464 169.714252,59 171.65962,59 C172.788599,59 174.020665,59.3282526 174.800475,59.8508438 L174.087173,60.9450191 C173.304038,60.4877518 172.505938,60.2591181 171.726128,60.2591181 C170.710214,60.2591181 170.028504,60.6837235 170.028504,61.3696244 C170.028504,61.9085465 170.412589,62.200871 171.408551,62.4801306 L172.605701,62.7740882 C173.287411,62.9520958 173.969121,63.2476864 174.368171,63.6559608 C174.767221,64.0479042 175,64.6194883 175,65.2074034 C175,66.1545999 174.451306,67.0201415 173.536817,67.4937398" id="Fill-35" fill="#15498D"></path>
                <path d="M181.263789,68 C180.055156,68 179.04964,67.6360963 178.292566,66.92483 C177.453237,66.1308583 177,64.989524 177,63.6331557 C177,62.5745267 177.268585,61.6647675 177.755396,60.920419 C178.510791,59.7294615 179.820144,59 181.330935,59 C182.254197,59 183.227818,59.2663113 183.815348,59.6947252 L183.043165,60.7384672 C182.505995,60.4076457 181.968825,60.2405808 181.347722,60.2405808 C180.42446,60.2405808 179.603597,60.688844 179.183933,61.4662746 C178.880096,61.9625069 178.745803,62.6076089 178.745803,63.5339092 C178.745803,64.7579489 178.930456,65.3865098 179.450839,65.9637934 C179.956115,66.5278441 180.609113,66.8090425 181.414868,66.8090425 C182.103118,66.8090425 182.673861,66.6105495 183.246283,66.2631869 L184,67.2225694 C183.328537,67.7353428 182.354916,68 181.263789,68" id="Fill-36" fill="#15498D"></path>
                <polygon id="Fill-37" fill="#15498D" points="185 68 187 68 187 59 185 59"></polygon>
                <polyline id="Fill-38" fill="#15498D" points="190 68 190 59 195.856213 59 195.627219 60.3174905 191.668639 60.3174905 191.668639 62.6444867 194.968639 62.6444867 194.968639 63.9602662 191.686391 63.9602662 191.686391 66.6311787 196 66.6311787 196 68 190 68"></polyline>
                <path d="M203.545,68 L201.295,63.5 C200.83,62.6085551 200.305,61.3441065 200.245,61.1730038 C200.275,61.634981 200.32,62.5589354 200.335,63.6882129 L200.395,68 L199,68 L199,59 L200.59,59 L202.885,63.5325095 C203.35,64.4581749 203.725,65.3821293 203.83,65.621673 C203.815,65.4163498 203.71,64.269962 203.695,63.2091255 L203.65,59 L205,59 L205,68 L203.545,68" id="Fill-39" fill="#15498D"></path>
                <polyline id="Fill-40" fill="#15498D" points="213.776961 60.3174905 211.169118 60.3174905 211.169118 68 209.573529 68 209.573529 60.3174905 207 60.3174905 207 59 214 59 213.776961 60.3174905"></polyline>
                <polygon id="Fill-41" fill="#15498D" points="216 68 218 68 218 59 216 59"></polygon>
                <polyline id="Fill-42" fill="#15498D" points="225.808978 60.28327 222.482012 60.28327 222.482012 62.6273764 225.204075 62.6273764 225.204075 63.9277567 222.482012 63.9277567 222.482012 68 221 68 221 59 226 59 225.808978 60.28327"></polyline>
                <polygon id="Fill-43" fill="#15498D" points="230 68 232 68 232 59 230 59"></polygon>
                <path d="M237.263789,68 C236.055156,68 235.046283,67.6360963 234.290887,66.92483 C233.451559,66.1308583 233,64.989524 233,63.6331557 C233,62.5745267 233.268585,61.6647675 233.755396,60.920419 C234.510791,59.7294615 235.818465,59 237.330935,59 C238.254197,59 239.227818,59.2663113 239.813669,59.6947252 L239.041487,60.7384672 C238.505995,60.4076457 237.968825,60.2405808 237.346043,60.2405808 C236.42446,60.2405808 235.60024,60.688844 235.180576,61.4662746 C234.880096,61.9625069 234.745803,62.6076089 234.745803,63.5339092 C234.745803,64.7579489 234.930456,65.3865098 235.450839,65.9637934 C235.952758,66.5278441 236.609113,66.8090425 237.414868,66.8090425 C238.103118,66.8090425 238.673861,66.6105495 239.242926,66.2631869 L240,67.2225694 C239.326859,67.7353428 238.354916,68 237.263789,68" id="Fill-44" fill="#15498D"></path>
                <path d="M244.471926,60.4516129 C244.417589,60.6907021 243.169652,64.1404175 243.097203,64.3795066 L245.830348,64.3795066 C245.723486,64.0721063 244.528074,60.6907021 244.471926,60.4516129 Z M247.134433,68 L246.228819,65.6603416 L242.660696,65.6603416 L241.755082,68 L240,68 L243.55001,59 L245.52425,59 L249,68 L247.134433,68 L247.134433,68 Z" id="Fill-45" fill="#15498D"></path>
                <polygon id="Fill-46" fill="#FFFFFE" points="0 29 119 29 119 0 0 0"></polygon>
                <polygon id="Stroke-47" stroke="#FFFFFE" stroke-width="2.177" points="0 29 119 29 119 0 0 0"></polygon>
                <path d="M69.2329009,0 C69.2877358,0.0306968539 69.3496462,0.0545721847 69.4027123,0.0835636577 L65.8472877,6.78912085 C64.2057783,5.46574537 62.1061321,4.58406351 59.8915094,4.58406351 C58.2252358,4.58406351 56,5.51008527 56,7.36553955 C56,9.30626286 58.4534198,10.0566304 60.0294811,10.5392532 L62.3360849,11.2026463 C67.1226415,12.5686563 70.8779481,14.9664216 70.8779481,20.346898 C70.8779481,23.3739488 70.0660377,26.7778889 67.8584906,29 L119,29 L119,0 L69.2329009,0" id="Fill-49" fill="#15498D"></path>
                <path d="M46.0306731,28.9471332 L49.8132035,21.6157013 C52.0185164,23.5103793 54.6251126,25.0520435 57.6574178,25.0520435 C59.7597929,25.0520435 62,24.0407527 62,21.7009703 C62,19.2742135 58.4826655,18.4368715 56.5599955,17.9082035 C51.0292661,16.3665393 47.3845678,14.9527786 47.3845678,8.51155542 C47.3845678,4.89103205 48.8047614,1.95607174 51.1636087,0 L0,0 L0,29 L46.1126745,29 C46.0847591,28.9829462 46.0550991,28.9658924 46.0306731,28.9471332" id="Fill-50" fill="#A2A3A1"></path>
                <polyline id="Fill-51" fill="#FFFFFE" points="10.5691376 6.50439048 10.5691376 12.6879203 17.754541 12.6879203 17.754541 15.1957915 10.5691376 15.1957915 10.5691376 26 8 26 8 4 18 4 18 6.50439048 10.5691376 6.50439048"></polyline>
                <polygon id="Stroke-52" stroke="#FFFFFE" stroke-width="0.3" points="10.5691376 6.50439048 10.5691376 12.6879203 17.754541 12.6879203 17.754541 15.1957915 10.5691376 15.1957915 10.5691376 26 8 26 8 4 18 4 18 6.50439048"></polygon>
                <polyline id="Fill-53" fill="#FFFFFE" points="24 2 40.3011852 19.3356582 40.3011852 3.05318221 43 3.05318221 43 26 26.7039718 8.66434176 26.7039718 25.0950305 24 25.0950305 24 2"></polyline>
                <polygon id="Stroke-54" stroke="#FFFFFE" stroke-width="0.3" points="24 2 40.3011852 19.3356582 40.3011852 3.05318221 43 3.05318221 43 26 26.7039718 8.66434176 26.7039718 25.0950305 24 25.0950305"></polygon>
                <polyline id="Fill-55" fill="#FFFFFE" points="76 2 92.3004525 19.3356582 92.3004525 3.05318221 95 3.05318221 95 26 78.6995475 8.66434176 78.6995475 25.0950305 76 25.0950305 76 2"></polyline>
                <polygon id="Stroke-56" stroke="#FFFFFE" stroke-width="0.3" points="76 2 92.3004525 19.3356582 92.3004525 3.05318221 95 3.05318221 95 26 78.6995475 8.66434176 78.6995475 25.0950305 76 25.0950305"></polygon>
                <polyline id="Fill-57" fill="#FFFFFE" points="103.569138 6.50439048 103.569138 12.6879203 110.752905 12.6879203 110.752905 15.1957915 103.569138 15.1957915 103.569138 26 101 26 101 4 111 4 111 6.50439048 103.569138 6.50439048"></polyline>
                <polygon id="Stroke-58" stroke="#FFFFFE" stroke-width="0.3" points="103.569138 6.50439048 103.569138 12.6879203 110.752905 12.6879203 110.752905 15.1957915 103.569138 15.1957915 103.569138 26 101 26 101 4 111 4 111 6.50439048"></polygon>
            </g>
        </g>
    </g>
</svg>