<?xml version="1.0" encoding="UTF-8"?>
<svg width="161px" height="55px" viewBox="0 0 161 55" version="1.1" xmlns="http://www.w3.org/2000/svg" xmlns:xlink="http://www.w3.org/1999/xlink">
    <!-- Generator: Sketch 47.1 (45422) - http://www.bohemiancoding.com/sketch -->
    <title>logo-polimi</title>
    <desc>Created with Sketch.</desc>
    <defs>
        <polygon id="path-1" points="0.0589285714 54.9980357 0.0589285714 0.121785714 54.8841071 0.121785714 54.8841071 54.9980357"></polygon>
    </defs>
    <g id="Page-1" stroke="none" stroke-width="1" fill="none" fill-rule="evenodd">
        <g id="Desktop-HD" transform="translate(-639.000000, -3234.000000)">
            <g id="logo-polimi" transform="translate(639.000000, 3234.000000)">
                <path d="M61.0035433,36.6313226 C60.9820591,36.7871862 61.0592069,36.8860997 61.2095961,36.8860997 L61.9156443,36.8860997 C62.001581,36.8860997 62.0992364,36.809167 62.1099785,36.7312352 L62.8921979,31.7675784 L62.9361428,31.7675784 L64.9019451,36.8751093 C64.9224527,36.9420507 64.9986239,36.9990009 65.0855372,36.9990009 L65.2798713,36.9990009 C65.3775267,36.9990009 65.4429558,36.9420507 65.4654165,36.8751093 L67.4185236,31.7675784 L67.4517264,31.7675784 L68.25543,36.7312352 C68.2778907,36.809167 68.3638275,36.8860997 68.4614828,36.8860997 L69.167531,36.8860997 C69.3208499,36.8860997 69.3970211,36.7871862 69.3628417,36.6313226 L68.0269165,29.1678531 C68.0044557,29.0779318 67.9194956,29 67.8325823,29 L67.6577792,29 C67.5825846,29 67.4946948,29.0569502 67.4732106,29.1228925 L65.2163953,34.7989259 L65.1724504,34.7989259 L62.9039165,29.1228925 C62.8824323,29.0579493 62.784777,29 62.7193479,29 L62.5464979,29 C62.4605612,29 62.3736479,29.0779318 62.3511872,29.1678531 L61.0035433,36.6313226 Z M70.9575537,36.6762833 C70.9575537,36.7871862 71.0552091,36.8860997 71.1645831,36.8860997 L71.8823499,36.8860997 C71.9897708,36.8860997 72.0884027,36.7871862 72.0884027,36.6762833 L72.0884027,29.3237167 C72.0884027,29.2138129 71.9897708,29.1129012 71.8823499,29.1129012 L71.1645831,29.1129012 C71.0552091,29.1129012 70.9575537,29.214812 70.9575537,29.3237167 L70.9575537,36.6762833 Z M74.1928756,36.6762833 C74.1928756,36.7871862 74.2807654,36.8860997 74.3989284,36.8860997 L78.2631508,36.8860997 C78.3822904,36.8860997 78.4692036,36.7871862 78.4692036,36.6762833 L78.4692036,36.0658174 C78.4692036,35.9559136 78.3822904,35.8540027 78.2631508,35.8540027 L75.3247012,35.8540027 L75.3247012,29.3237167 C75.3247012,29.2138129 75.2231396,29.1129012 75.1157187,29.1129012 L74.3989284,29.1129012 C74.2807654,29.1129012 74.1928756,29.214812 74.1928756,29.3237167 L74.1928756,36.6762833 Z M79.314899,36.8860997 L80.0004396,36.8860997 C80.1293447,36.8860997 80.2172345,36.7981766 80.2494608,36.7202448 C80.4662557,36.2086924 80.6947692,35.7101286 80.9125406,35.1995754 L84.4623128,35.1995754 L85.1332051,36.7202448 C85.1791031,36.8191582 85.2533212,36.8860997 85.3832028,36.8860997 L86.0677669,36.8860997 C86.2298748,36.8860997 86.3177646,36.7432247 86.253312,36.5993506 L82.9408424,29.1248907 C82.9095927,29.0599475 82.8119373,29.0029974 82.7572503,29.0029974 L82.6478763,29.0029974 C82.5931893,29.0029974 82.4965105,29.0589484 82.4633077,29.1248907 L79.1293539,36.5993506 C79.0658779,36.7432247 79.1527911,36.8860997 79.314899,36.8860997 L79.314899,36.8860997 Z M81.3353883,34.243412 L82.6586184,31.1990758 L82.7152585,31.1990758 L84.0482541,34.243412 L81.3353883,34.243412 Z M87.3372865,36.6762833 C87.3372865,36.7871862 87.436895,36.8860997 87.5433393,36.8860997 L88.2279033,36.8860997 C88.3460663,36.8860997 88.4339561,36.7871862 88.4339561,36.6762833 L88.4339561,31.2670164 L88.4437217,31.2670164 L93.1565691,36.9990009 L93.4387931,36.9990009 C93.546214,36.9990009 93.6448459,36.9090796 93.6448459,36.7981766 L93.6448459,29.3237167 C93.6448459,29.2138129 93.546214,29.1129012 93.4387931,29.1129012 L92.7425104,29.1129012 C92.6223943,29.1129012 92.5364576,29.214812 92.5364576,29.3237167 L92.5364576,34.57712 L92.5276686,34.57712 L87.8138446,29 L87.5433393,29 C87.436895,29 87.3372865,29.0909204 87.3372865,29.2008243 L87.3372865,36.6762833 Z M95.195613,33.0104908 C95.195613,35.2325465 96.9221596,36.9990009 99.0920616,36.9990009 C101.264893,36.9990009 103.000229,35.2325465 103.000229,33.0104908 C103.000229,30.7894342 101.264893,29.0019983 99.0920616,29.0019983 C96.9221596,29.0019983 95.195613,30.7894342 95.195613,33.0104908 L95.195613,33.0104908 Z M96.2815405,33.0104908 C96.2815405,31.4338704 97.5520367,30.112027 99.0930382,30.112027 C100.646735,30.112027 101.917231,31.4338704 101.917231,33.0104908 C101.917231,34.5991008 100.646735,35.8869739 99.0930382,35.8869739 C97.5510601,35.8869739 96.2815405,34.5991008 96.2815405,33.0104908 L96.2815405,33.0104908 Z M106.172075,36.8860997 L109.949384,36.8860997 C110.0695,36.8860997 110.15446,36.7981766 110.15446,36.6882728 L110.15446,36.2106906 C110.15446,36.0887973 110.0695,36.0008742 109.949384,36.0008742 L108.757012,36.0008742 L108.757012,29.54852 C108.757012,29.4376171 108.669122,29.3367054 108.560725,29.3367054 L108.02655,29.3367054 L106.410354,30.8363932 C106.367386,30.8803547 106.345901,30.970276 106.378128,31.0591982 L106.508009,31.4488572 C106.540236,31.5487698 106.651563,31.5697515 106.746288,31.5267891 L107.690616,31.0372174 L107.690616,36.0028725 L106.172075,36.0028725 C106.051959,36.0028725 105.966022,36.0907956 105.966022,36.2126889 L105.966022,36.690271 C105.966022,36.7981766 106.051959,36.8860997 106.172075,36.8860997 L106.172075,36.8860997 Z M111.381012,34.8658674 C111.381012,36.0758087 112.346823,37 113.86634,37 C115.442498,37 116.397567,36.0758087 116.397567,34.8658674 C116.397567,33.909704 115.583122,33.2442862 115.081173,33.0114899 L115.081173,32.9675284 C115.550895,32.7237417 116.203233,32.1122768 116.203233,31.2570251 C116.203233,30.0340952 115.213008,29.2248033 113.880012,29.2248033 C112.575337,29.2248033 111.576322,30.0340952 111.576322,31.2570251 C111.576322,32.1242663 112.226707,32.7347321 112.695453,32.9795179 L112.695453,33.0114899 C112.293113,33.1993256 111.381012,33.8997128 111.381012,34.8658674 L111.381012,34.8658674 Z M113.889778,32.4889472 C113.043106,32.3570626 112.675922,31.899463 112.675922,31.3009866 C112.675922,30.6235794 113.205214,30.136006 113.857551,30.136006 C114.572389,30.136006 115.10461,30.6235794 115.10461,31.3009866 C115.10461,31.8884726 114.724731,32.368053 113.889778,32.4889472 L113.889778,32.4889472 Z M112.511861,34.8888473 C112.511861,34.2983639 113.010879,33.6888972 113.890754,33.5560135 C114.768676,33.6888972 115.266718,34.2983639 115.266718,34.8888473 C115.266718,35.6311977 114.64856,36.0997877 113.880012,36.0997877 C113.164198,36.0997877 112.511861,35.6212064 112.511861,34.8888473 L112.511861,34.8888473 Z M117.514744,33.8877232 C117.514744,35.5982266 118.339932,36.9990009 120.078198,36.9990009 C121.389709,36.9990009 122.499074,35.8540027 122.499074,34.4542276 C122.499074,32.9225678 121.379943,32.0453353 120.229563,32.0453353 C119.503008,32.0453353 118.871177,32.3990259 118.784264,32.4539778 C119.143636,31.0901711 120.870182,30.167978 121.368225,30.001124 C121.574278,29.9341826 121.618223,29.8122892 121.562559,29.6794055 L121.379943,29.2238042 C121.335999,29.1009117 121.238343,29.0459598 121.106508,29.0909204 C120.107494,29.4805795 117.514744,30.7894342 117.514744,33.8877232 L117.514744,33.8877232 Z M120.065502,35.9998751 C118.882896,35.9998751 118.480556,34.7329836 118.568446,33.8007993 C118.632898,33.6019733 119.198323,32.9555389 120.052807,32.9555389 C120.855534,32.9555389 121.498106,33.6339453 121.498106,34.4662171 C121.498106,35.2994879 120.868229,35.9998751 120.065502,35.9998751 L120.065502,35.9998751 Z M123.321332,36.0098664 C123.561564,36.2976146 124.199254,36.9990009 125.545921,36.9990009 C127.042978,36.9990009 128,36.0867991 128,34.8768577 C128,33.9206944 127.19825,33.2552766 126.687512,33.0334707 L126.687512,32.9995004 C127.175789,32.7687024 127.803713,32.1102785 127.803713,31.256026 C127.803713,30.0121144 126.795909,29.2238042 125.536155,29.2238042 C124.354526,29.2238042 123.529338,30.2019483 123.529338,30.2019483 C123.451214,30.2798801 123.441448,30.4127638 123.529338,30.4886974 L123.929725,30.8543774 C124.028357,30.9432996 124.14652,30.9213188 124.209996,30.8323967 C124.427767,30.5876108 124.820342,30.2109404 125.470726,30.2109404 C126.108416,30.2109404 126.709973,30.6755339 126.709973,31.4208817 C126.709973,32.0733109 126.199235,32.6078431 125.17776,32.6078431 L124.572297,32.6078431 C124.419955,32.6078431 124.354526,32.6747846 124.354526,32.8406394 L124.354526,33.3182216 C124.354526,33.4750843 124.441439,33.552017 124.559602,33.552017 L125.167995,33.552017 C126.329117,33.552017 126.882823,34.1854627 126.882823,34.8508805 C126.882823,35.59423 126.230485,36.0498314 125.52639,36.0498314 C124.72171,36.0498314 124.11527,35.4493568 124.049841,35.3614337 C123.961951,35.2615212 123.866249,35.252529 123.754922,35.3404521 L123.332074,35.7381042 C123.256879,35.8090421 123.256879,35.9319346 123.321332,36.0098664 L123.321332,36.0098664 Z" id="Fill-1" fill="#1E3352"></path>
                <path d="M61,22.5564594 C61,22.7094376 61.1233501,22.8470218 61.2933206,22.8470218 L62.7123321,22.8470218 C62.8677338,22.8470218 63.0056527,22.7094376 63.0056527,22.5564594 L63.0056527,18.9658008 L64.9336046,18.9658008 C66.814936,18.9658008 68.373809,17.4225488 68.373809,15.5290825 C68.373809,13.6808362 66.8159073,12.1520161 64.9190357,12.1520161 L61.2933206,12.1520161 C61.1243213,12.1520161 61,12.2896003 61,12.4425785 L61,22.5564594 Z M63.0056527,17.1031225 L63.0056527,14.0320126 L64.7947144,14.0320126 C65.6581649,14.0320126 66.3846677,14.6737514 66.3846677,15.5127263 C66.3846677,16.4152016 65.6581649,17.1031225 64.7947144,17.1031225 L63.0056527,17.1031225 Z M69.5441778,17.5158751 C69.5441778,20.5706289 71.995639,23 75.0823046,23 C78.1670277,23 80.6330578,20.571591 80.6330578,17.5158751 C80.6330578,14.4601592 78.1660564,12.0009621 75.0823046,12.0009621 C71.9966103,12 69.5441778,14.4591971 69.5441778,17.5158751 L69.5441778,17.5158751 Z M71.5498305,17.5158751 C71.5498305,15.5906586 73.1397838,13.9858305 75.0823046,13.9858305 C77.0248254,13.9858305 78.6303189,15.5906586 78.6303189,17.5158751 C78.6303189,19.4401294 77.0248254,21.0141695 75.0823046,21.0141695 C73.1397838,21.0141695 71.5498305,19.4401294 71.5498305,17.5158751 L71.5498305,17.5158751 Z M82.2531202,22.5564594 C82.2531202,22.7094376 82.3764702,22.8470218 82.5464408,22.8470218 L88.1914063,22.8470218 C88.3594343,22.8470218 88.4827844,22.7094376 88.4827844,22.5564594 L88.4827844,21.3037698 C88.4827844,21.1507916 88.3594343,21.0132074 88.1914063,21.0132074 L84.2578016,21.0132074 L84.2578016,12.4425785 C84.2578016,12.2896003 84.1169689,12.1520161 83.9635097,12.1520161 L82.5444983,12.1520161 C82.375499,12.1520161 82.2521489,12.2896003 82.2521489,12.4425785 L82.2531202,22.5564594 Z M90.5059198,22.5564594 C90.5059198,22.7094376 90.6457813,22.8470218 90.7982692,22.8470218 L92.2337921,22.8470218 C92.3872512,22.8470218 92.528084,22.7094376 92.528084,22.5564594 L92.528084,12.4435406 C92.528084,12.2905624 92.3872512,12.1529782 92.2337921,12.1529782 L90.7982692,12.1529782 C90.6457813,12.1529782 90.5059198,12.2905624 90.5059198,12.4435406 L90.5059198,22.5564594 Z M97.1202032,22.5564594 C97.1202032,22.7094376 97.2600647,22.8470218 97.4125526,22.8470218 L98.8480754,22.8470218 C99.0034771,22.8470218 99.1443099,22.7094376 99.1443099,22.5564594 L99.1443099,13.9848684 L101.504473,13.9848684 C101.674443,13.9848684 101.797793,13.8482463 101.797793,13.694306 L101.797793,12.4425785 C101.797793,12.2896003 101.674443,12.1520161 101.504473,12.1520161 L94.7639254,12.1520161 C94.5949261,12.1520161 94.4715761,12.2896003 94.4715761,12.4425785 L94.4715761,13.694306 C94.4715761,13.8482463 94.5949261,13.9848684 94.7639254,13.9848684 L97.1240882,13.9848684 L97.1240882,22.5564594 L97.1202032,22.5564594 Z M103.552861,22.5564594 C103.552861,22.7094376 103.676211,22.8470218 103.84521,22.8470218 L110.122466,22.8470218 C110.292437,22.8470218 110.415787,22.7094376 110.415787,22.5564594 L110.415787,21.3037698 C110.415787,21.1507916 110.292437,21.0132074 110.122466,21.0132074 L105.557542,21.0132074 L105.557542,18.339456 L109.366826,18.339456 C109.523199,18.339456 109.66306,18.2182279 109.66306,18.0498557 L109.66306,16.7817721 C109.66306,16.629756 109.523199,16.4912097 109.366826,16.4912097 L105.557542,16.4912097 L105.557542,13.9858305 L110.122466,13.9858305 C110.292437,13.9858305 110.415787,13.8492084 110.415787,13.6952681 L110.415787,12.4435406 C110.415787,12.2905624 110.292437,12.1529782 110.122466,12.1529782 L103.84521,12.1529782 C103.676211,12.1529782 103.552861,12.2905624 103.552861,12.4435406 L103.552861,22.5564594 Z M111.988257,17.5158751 C111.988257,20.5706289 114.470799,23 117.554551,23 C118.927913,23 120.252712,22.5266334 121.301673,21.5183241 C121.409483,21.411528 121.441535,21.2133298 121.318185,21.1055716 L120.363436,20.1280504 C120.269224,20.0356862 120.100224,20.0202921 119.975903,20.1280504 C119.329044,20.6466369 118.544265,20.9987755 117.617683,20.9987755 C115.64311,20.9987755 114.16291,19.3795154 114.16291,17.469693 C114.16291,15.5444765 115.628541,13.9107846 117.6002,13.9107846 C118.466564,13.9107846 119.327101,14.2475291 119.973961,14.8113356 C120.097311,14.9335258 120.252712,14.9335258 120.360522,14.8113356 L121.301673,13.8492084 C121.425024,13.7270183 121.425024,13.543252 121.286133,13.4210618 C120.237172,12.4887606 119.113424,12.0009621 117.552608,12.0009621 C114.469828,12 111.988257,14.4591971 111.988257,17.5158751 L111.988257,17.5158751 Z M123.355889,22.5564594 C123.355889,22.7094376 123.492837,22.8470218 123.648239,22.8470218 L125.05171,22.8470218 C125.22168,22.8470218 125.343088,22.7094376 125.343088,22.5564594 L125.343088,15.987055 L125.360571,15.987055 L131.808769,22.9990379 L132.178819,22.9990379 C132.332278,22.9990379 132.471168,22.8778098 132.471168,22.7238695 L132.471168,12.4435406 C132.471168,12.2905624 132.332278,12.1529782 132.178819,12.1529782 L130.759807,12.1529782 C130.588865,12.1529782 130.465515,12.2905624 130.465515,12.4435406 L130.465515,18.7531706 L130.449004,18.7531706 L124.0348,12 L123.650181,12 C123.494779,12 123.358803,12.1202659 123.358803,12.2742062 L123.358803,22.5564594 L123.355889,22.5564594 Z M135.122709,22.5564594 C135.122709,22.7094376 135.262571,22.8470218 135.413116,22.8470218 L136.850581,22.8470218 C137.002098,22.8470218 137.140988,22.7094376 137.140988,22.5564594 L137.140988,12.4435406 C137.140988,12.2905624 137.002098,12.1529782 136.850581,12.1529782 L135.413116,12.1529782 C135.262571,12.1529782 135.122709,12.2905624 135.122709,12.4435406 L135.122709,22.5564594 Z M139.16121,17.5158751 C139.16121,20.5706289 141.646665,23 144.729446,23 C146.102808,23 147.428578,22.5266334 148.47754,21.5183241 C148.583407,21.411528 148.61643,21.2133298 148.49308,21.1055716 L147.536388,20.1280504 C147.443147,20.0356862 147.275119,20.0202921 147.151769,20.1280504 C146.502967,20.6466369 145.717218,20.9987755 144.791606,20.9987755 C142.817034,20.9987755 141.336833,19.3795154 141.336833,17.469693 C141.336833,15.5444765 142.801494,13.9107846 144.776066,13.9107846 C145.639517,13.9107846 146.502967,14.2475291 147.151769,14.8113356 C147.275119,14.9335258 147.428578,14.9335258 147.535417,14.8113356 L148.47754,13.8492084 C148.60089,13.7270183 148.60089,13.543252 148.461028,13.4210618 C147.412067,12.4887606 146.288319,12.0009621 144.728474,12.0009621 C141.646665,12 139.16121,14.4591971 139.16121,17.5158751 L139.16121,17.5158751 Z M149.912091,17.5158751 C149.912091,20.5706289 152.362581,23 155.452161,23 C158.53397,23 161,20.571591 161,17.5158751 C161,14.4601592 158.53397,12.0009621 155.452161,12.0009621 C152.362581,12 149.912091,14.4591971 149.912091,17.5158751 L149.912091,17.5158751 Z M151.916773,17.5158751 C151.916773,15.5906586 153.504783,13.9858305 155.453132,13.9858305 C157.39371,13.9858305 158.99629,15.5906586 158.99629,17.5158751 C158.99629,19.4401294 157.39371,21.0141695 155.453132,21.0141695 C153.504783,21.0132074 151.916773,19.4401294 151.916773,17.5158751 L151.916773,17.5158751 Z" id="Fill-2" fill="#1E3352"></path>
                <g id="Group-5">
                    <mask id="mask-2" fill="white">
                        <use xlink:href="#path-1"></use>
                    </mask>
                    <g id="Clip-4"></g>
                    <path d="M54.8742857,28.2925893 L52.4444643,28.208125 M54.8841071,27.1434821 L52.4533036,27.1817857 M54.8369643,25.8627679 L52.4120536,26.021875 M54.731875,24.59875 L52.311875,24.8482143 M54.5649107,23.326875 L52.1625893,23.6961607 M54.3390179,22.0638393 L51.9573214,22.5509821 M54.0532143,20.8145536 L51.7,21.4175893 M53.7094643,19.58 L51.3876786,20.2959821 M53.3116964,18.3758929 L51.0174107,19.1773214 M52.855,17.1796429 L50.6029464,18.0910714 M52.3423214,16.0059821 L50.1354464,17.0244643 M51.7746429,14.8578571 L49.6188393,15.9814286 M51.1558929,13.7372321 L49.0550893,14.9609821 M50.4841071,12.6470536 L48.4451786,13.97 M49.7632143,11.5883036 L47.7891071,13.0055357 M48.99125,10.5658929 L47.0878571,12.0744643 M48.1760714,9.58080357 L46.344375,11.1777679 M47.3147321,8.63303571 L45.5625893,10.3144643 M46.4111607,7.7275 L44.7385714,9.48946429 M45.4683036,6.86321429 L43.8801786,8.70276786 M44.4930357,6.05392857 L42.9716964,7.9475 M43.4725893,5.28098214 L42.0445536,7.24625 M42.4177679,4.55616071 L41.0840179,6.58723214 M41.3295536,3.88241071 L40.0930357,5.97535714 M40.2099107,3.25973214 L39.0755357,5.40866071 M39.0608036,2.69008929 L38.0334821,4.89205357 M37.888125,2.17544643 L36.9658929,4.42455357 M36.691875,1.71580357 L35.8835714,4.00714286 M35.475,1.31214286 L34.7786607,3.64080357 M34.2522321,0.971339286 L33.6442857,3.32357143 M33.0019643,0.683571429 L32.5108929,3.06330357 M31.7408929,0.454732143 L31.3696429,2.85607143 M30.48375,0.285803571 L30.2008929,2.69991071 M29.205,0.174821429 L29.0439286,2.59973214 M27.9213393,0.121785714 L27.8840179,2.55258929 M26.6514286,0.127678571 L26.7074107,2.5575 M25.3716964,0.193482143 L25.5475,2.61741071 M24.0929464,0.318214286 L24.3925,2.73035714 M22.8230357,0.502857143 L23.2424107,2.89732143 M21.5776786,0.744464286 L22.0864286,3.12026786 M20.3323214,1.04794643 L20.9569643,3.39625 M19.1016964,1.409375 L19.8432143,3.72330357 M17.88875,1.82776786 L18.7422321,4.10241071 M16.6983929,2.30116071 L17.6608929,4.53258929 M15.5463393,2.825625 L16.5883929,5.01973214 M14.4041071,3.40803571 L15.5532143,5.55008929 M13.2913393,4.04446429 L14.5425893,6.12857143 M12.21,4.73098214 L13.5575,6.75321429 M11.1620536,5.46758929 L12.6067857,7.42205357 M10.1504464,6.25133929 L11.6855357,8.13508929 M9.17419643,7.08125 L10.7986607,8.88839286 M8.23821429,7.95535714 L9.94616071,9.68392857 M7.35428571,8.86089286 L9.12410714,10.5266071 M6.50571429,9.81848214 L8.35017857,11.39875 M5.69642857,10.8133929 L7.61651786,12.3042857 M4.93919643,11.8466071 L6.92803571,13.2422321 M4.23008929,12.9132143 L6.28375,14.210625 M3.56910714,14.0122321 L5.685625,15.2084821 M2.96214286,15.1407143 L5.13366071,16.2328571 M2.41508929,16.2839286 L4.62491071,17.2955357 M1.91714286,17.4654464 L4.173125,18.3660714 M1.47321429,18.6675893 L3.77142857,19.4572321 M1.08723214,19.8923214 L3.42178571,20.5660714 M0.757232143,21.13375 L3.12223214,21.6876786 M0.491071429,22.3732143 L2.87571429,22.83875 M0.280892857,23.6401786 L2.68517857,23.9839286 M0.125714286,24.915 L2.54669643,25.1369643 M0.0353571429,26.18 L2.46125,26.310625 M0,27.4636607 L2.42982143,27.4705357 M0.0225892857,28.7473214 L2.45241071,28.6314286 M0.107053571,30.0152679 L2.52803571,29.8070536 M0.248482143,31.2900893 L2.65866071,30.9600893 M0.452767857,32.5560714 L2.84232143,32.1072321 M0.712053571,33.7975 L3.08,33.2602679 M1.03125,35.0399107 L3.37267857,34.3838393 M1.41035714,36.2636607 L3.71839286,35.4975893 M1.84642857,37.4707143 L4.11125,36.5907143 M2.3375,38.6541964 L4.558125,37.6651786 M2.88357143,39.813125 L5.053125,38.7180357 M3.48267857,40.9465179 L5.59625,39.7453571 M4.12892857,42.0357143 L6.19633929,40.7599107 M4.83017857,43.1091964 L6.83669643,41.7351786 M5.58053571,44.144375 L7.51928571,42.6790179 M6.38098214,45.1451786 L8.24508929,43.5875 M7.22366071,46.110625 L9.01116071,44.4645536 M8.10955357,47.0328571 L9.81946429,45.3042857 M9.03964286,47.9138393 L10.663125,46.1066964 M10.0090179,48.7516071 L11.543125,46.8678571 M11.0058929,49.5353571 L12.4702679,47.5946429 M12.0469643,50.2788393 L13.42,48.2723214 M13.124375,50.9732143 L14.3991964,48.9028571 M14.2332143,51.6155357 L15.4039286,49.48625 M15.3705357,52.2067857 L16.4351786,50.0244643 M16.5353571,52.7440179 L17.4919643,50.5116071 M17.7090179,53.2213393 L18.5821429,50.9535714 M18.9190179,53.6475893 L19.6791964,51.3395536 M20.1466964,54.0158929 L20.7909821,51.6734821 M21.3940179,54.32625 L21.9194643,51.9553571 M22.6364286,54.5776786 L23.0715179,52.1841964 M23.9063393,54.7721429 L24.2186607,52.3609821 M25.183125,54.9057143 L25.3736607,52.4827679 M26.4510714,54.9803571 L26.5502679,52.5515179 M27.73375,54.9980357 L27.7111607,52.5672321 M29.0174107,54.9558036 L28.8710714,52.5289286 M30.2824107,54.8566071 L30.0427679,52.4366071 M31.5542857,54.6945536 L31.1958036,52.2892857 M32.8202679,54.4725893 L32.34,52.0899107 M34.0715179,54.1916964 L33.4753571,51.8365179 M35.2942857,53.85875 L34.6107143,51.5261607 M36.513125,53.4639286 L35.7166071,51.1666964 M37.7142857,53.0101786 L36.8058036,50.7561607 M38.8908929,52.5024107 L37.8724107,50.2945536 M40.0419643,51.9396429 L38.9183929,49.7858036 M41.1665179,51.3238393 L39.9408036,49.2240179 M42.2586607,50.6589286 L40.9327679,48.62 M43.3075893,49.9488393 L41.9109821,47.9609821 M44.3349107,49.18375 L42.8459821,47.2636607 M45.3258929,48.3725 L43.7466071,46.5270536 M46.2785714,47.5170536 L44.6108929,45.74625 M47.1880357,46.6154464 L45.4398214,44.9291071 M48.0552679,45.6755357 L46.2294643,44.0716964 M48.8792857,44.6933929 L46.9778571,43.181875 M49.658125,43.6758929 L47.685,42.2566964 M50.3790179,42.6348214 L48.3567857,41.2863393 M51.0576786,41.5466071 L48.9725893,40.2983036 M51.6872321,40.4308929 L49.5422321,39.2857143 M52.2608036,39.2857143 L50.0657143,38.245625 M52.7823214,38.1130357 L50.5391071,37.1849107 M53.2478571,36.91875 L50.9594643,36.1016071 M53.6515179,35.715625 L51.335625,34.9849107 M54.0041071,34.4820536 L51.651875,33.8682143 M54.29875,33.2317857 L51.9170536,32.7367857 M54.5315179,31.96875 L52.1311607,31.5945536 M54.704375,30.7135714 L52.29125,30.4307143 M54.8232143,29.4328571 L52.3973214,29.2727679" id="Stroke-3" stroke="#1E3352" stroke-width="0.463" mask="url(#mask-2)"></path>
                </g>
                <polyline id="Fill-6" fill="#86AFC7" points="29.002 30.002 29 30.002 29.002 30 29.002 30.002"></polyline>
                <path d="M29,30 C29,30.002 29,30.002 29,30.002 L29,30" id="Fill-7" fill="#86AFC7"></path>
                <path d="M29.0015,30.002 C28.9995,30.002 28.9995,30.002 29.0015,30 L29.0015,30.002" id="Fill-8" fill="#86AFC7"></path>
                <path d="M47.7440681,19.9935556 C48.2559144,21.2756084 48.5810989,23.0560728 48.8640388,25.4899005 C49.4043756,30.1749694 48.1851794,34.3724832 47.8059613,35.9259482 C47.4257607,37.4774394 48.042727,39.6832807 48.7323931,39.8579715 C48.7323931,39.8579715 46.079831,40.1510968 44.9411942,40.1066839 C44.4607857,40.0859578 44.4047872,40.0938535 43.8713274,40.0701666 C42.0184637,39.9892364 40.115496,39.8856062 39.9995692,39.8007282 L47.7440681,19.9935556 Z M14.3433989,20.9765615 C14.3433989,20.9765615 12.3863975,21.283504 10.2928383,21.1621088 C9.75446639,21.1305262 9.20332293,21.071309 8.67674022,20.9696528 C8.3820111,20.9133964 8.09415899,20.8443097 7.81907847,20.7594317 L7.81907847,20.7584447 C7.67367877,20.7150188 7.53122636,20.666658 7.39270367,20.6143495 C7.39270367,20.6143495 6.51441088,20.9341225 6.24129522,23.1764811 C6.24129522,23.1764811 6.13126301,25.3902181 5.84635819,26.2735416 C5.30503903,27.4341991 4.12415767,28.6432173 4.12415767,28.6432173 C4.12415767,28.6432173 3.80290293,29.0014815 4.19391023,29.3548109 L5.04764227,29.9519179 L14.3433989,20.9765615 Z M6.55272566,30.5746856 C6.51932303,30.5924508 5.24019863,30.2914299 5.19598926,30.1197 C5.19598926,30.1197 5.15177989,30.0180438 5.21858516,29.9558657 C5.29030258,29.8946746 5.50250755,29.6558318 5.57815469,29.5245669 C5.6076276,29.4712714 5.62138163,29.4475846 5.74811515,29.1672897 C5.93281207,28.7675735 6.23933036,28.0826277 6.23933036,28.0826277 C6.50458657,27.3907732 6.4603772,27.2693779 6.4603772,27.2693779 L6.75608876,23.4873715 C6.80128056,21.7720461 7.80434201,20.8058185 7.80434201,20.8058185 L6.55272566,30.5746856 Z M27.4981421,13.8507562 C27.4981421,13.8507562 27.3910572,13.6691567 27.3036209,13.5201267 C27.253517,13.4303139 27.21029,13.3523446 27.2004657,13.3326055 C27.1798347,13.2753622 27.1425023,13.1875233 27.2230616,13.0759976 C27.3016561,12.9664457 27.4981421,13.0523107 27.520738,13.0700759 C27.5433339,13.0898149 27.655331,13.2309493 27.8125199,13.3543185 C27.9687263,13.4816355 27.9461304,13.3632011 28.0787585,13.9504385 C28.1082314,14.0738077 28.1151084,14.1725031 28.1033193,14.2534333 C28.0610748,14.557415 27.7034701,14.4991847 27.3163925,14.7577666 C26.8183003,15.0913569 26.2681393,14.7330927 26.2681393,14.7330927 C26.2681393,14.7330927 25.4704058,13.9760993 25.4193194,13.8991169 C25.3701979,13.8260824 25.283744,13.832991 25.2120266,13.9139212 C25.1403091,13.9948514 25.1845185,14.0027471 24.8721056,14.0086688 C24.5636225,14.0136035 24.4241174,13.8310171 24.3789256,13.7412043 C24.3347162,13.6533655 24.7728802,13.4737399 24.7728802,13.4737399 C24.7728802,13.4737399 25.2493589,13.1904842 25.7297674,13.15298 C25.8103267,13.1460713 25.8830265,13.1381757 25.9527791,13.1322539 C26.2966297,13.0977106 26.5166941,13.0759976 26.8399138,13.2743753 L27.2839723,13.5418397 L27.4981421,13.8507562 Z M33.5273176,30.843137 C33.5273176,30.843137 33.4968623,33.3421036 33.507669,33.5365335 C33.5174933,33.7329373 33.5754567,34.5540827 33.3406558,34.8837252 C33.1088022,35.2153416 32.8582825,35.803566 32.8857905,36.0424088 C32.914281,36.2792776 32.914281,36.6997199 32.8700717,36.8230891 C32.8238974,36.9464583 32.5782898,37.7113474 32.5782898,37.7113474 C32.5782898,37.7113474 32.4761171,38.3489194 33.0645929,38.4229409 C33.6481565,38.4979494 34.4537495,38.507819 34.7641975,38.3489194 C35.0736631,38.1900199 35.3192707,37.8751817 35.2328168,37.6689084 C35.1434156,37.4606612 34.9135269,37.3244615 34.7622326,37.123123 C34.6079911,36.9247453 34.4173996,36.5497029 34.4812575,36.3118471 C34.4812575,36.3118471 34.580483,35.994048 34.5765533,35.8509398 C34.5677114,35.7147402 34.5402034,35.1551374 34.678726,34.9607076 C34.8143014,34.7702255 35.8095035,33.2414343 35.8095035,33.2414343 C35.8095035,33.2414343 36.2908944,32.5219451 36.4520129,30.4542773 L33.5273176,30.843137 Z M33.605912,30.7809589 C34.7268651,30.5302727 35.7073307,30.4009818 36.4431711,30.3348559 C37.3077098,30.2558996 37.8323277,30.2628083 37.8323277,30.2628083 L33.605912,30.7809589 Z M26.0411978,32.3847586 C25.9626034,33.5355465 25.8781144,34.3695224 25.8781144,34.3695224 C25.7002945,35.9930611 24.8642462,38.0962593 24.8642462,38.0962593 C24.8642462,38.0962593 25.7386093,38.0666507 26.5451846,37.7962254 C27.3556897,37.5258001 27.8714657,36.8921759 28.6397263,37.335318 L26.0411978,32.3847586 Z M21.9759008,35.6910533 C21.9759008,35.6910533 24.1500193,38.0064465 24.8583516,38.0893506 L21.9759008,35.6910533 Z M46.1653025,40.061284 C46.1653025,40.061284 43.8310478,39.6102462 43.7357521,35.8568615 L46.1653025,40.061284 Z M29.3441289,12.2558391 L29.730224,13.7540347 L29.3441289,12.2558391 Z M21.620261,17.857788 L21.8766753,17.8252185 C21.8766753,17.8252185 22.5201672,17.9229269 22.5977792,17.9278617 C22.6783385,17.9327964 23.2599373,18.0403744 23.2599373,18.0403744 C23.3159359,18.2032217 22.9730676,18.3206692 22.9730676,18.3206692 L22.3502068,18.4233124 L22.5427631,18.7411115 C22.7353195,19.0569366 22.3099271,19.3095968 22.3099271,19.3095968 C22.4327309,19.9106515 22.0525303,20.092251 22.0525303,20.092251 C21.4650369,20.4880194 20.9011219,20.1445596 20.4885011,19.9076907 C20.3853459,19.8484735 20.2939799,19.7961649 20.2104733,19.7635954 C19.7958877,19.5997611 19.9088672,19.2118884 19.9010077,18.8259895 C19.890201,18.4400906 20.0493547,18.1045264 20.1574221,17.9584572 C20.2654894,17.8123881 20.7714411,17.6307886 20.7714411,17.6307886 L21.1997807,17.7442883 L21.620261,17.857788 L21.6291028,17.8607488 C21.6291028,17.8607488 21.8255889,18.1657175 21.7342229,18.2249347 C21.6448217,18.2871128 21.3127602,18.4341689 21.1732551,18.3581735 L21.0308027,18.2841519 L21.620261,17.857788 Z M26.8379489,28.1714535 C26.8379489,28.1714535 26.3938903,28.054006 26.2887703,27.8714196 L26.8379489,28.1714535 Z M33.4221975,12.2479435 C33.4221975,12.2479435 33.8063278,12.4798776 34.2032297,12.4867863 L33.4221975,12.2479435 Z M31.8169062,11.5718802 C31.8169062,11.5718802 32.2030014,11.8028274 32.5989209,11.810723 L31.8169062,11.5718802 Z M22.9838744,12.9348632 L23.638173,13.3750445 L22.9838744,12.9348632 Z M44.1552498,22.8833559 C38.0356908,21.2371172 42.0312353,17.1906073 42.6590083,16.5994221 L44.1552498,22.8833559 Z M43.3359029,23.3264981 L42.3662441,27.1489695 L43.3359029,23.3264981 Z M34.0548827,24.1476435 L35.1286792,23.9226181 L34.0548827,24.1476435 Z M34.5215372,24.0864524 L34.644341,24.2236389 L34.5215372,24.0864524 Z M33.6815592,12.3762475 L33.6393147,12.5608078 L33.6815592,12.3762475 Z M32.1676339,11.8196056 L32.1499502,11.9400139 L32.1676339,11.8196056 Z M23.2648495,13.1983798 L23.1636591,13.3493837 L23.2648495,13.1983798 Z M26.5638508,28.1082885 L26.4213984,28.2286968 L26.5638508,28.1082885 Z M26.7121978,17.4077371 L26.7623018,17.4817586 L26.7121978,17.4077371 Z M26.2553677,17.644606 C26.2553677,17.644606 26.7082681,17.0317078 26.9293149,17.2083725 L26.2553677,17.644606 Z M27.8783427,18.7401245 C27.8783427,18.7401245 28.2939108,18.6493248 28.5228171,18.4894383 L27.8783427,18.7401245 Z M32.3906456,12.8716982 C32.3906456,12.8716982 32.3700146,12.9417719 32.6342884,12.9575631 L32.3906456,12.8716982 Z M32.1283367,13.2250276 C32.1283367,13.2250276 32.2953499,13.3681359 32.5370277,13.3819532 L32.1283367,13.2250276 Z M29.1564847,32.3058023 C29.1564847,32.3058023 29.1309415,32.5426712 29.0906618,32.7854618 C29.0552943,32.9996307 29.0120674,33.2187344 28.9698229,33.2828864 C28.8804217,33.4210599 28.7271626,33.9125628 28.785126,33.9885582 C28.785126,33.9885582 28.9354378,34.4672308 29.1810454,34.1237709 L29.4286179,33.7783371 L29.688962,33.354934 L29.1564847,32.3058023 Z M29.0435052,31.5320306 C29.0287687,31.6771128 28.9010528,32.2130287 29.2242724,32.2613894 C29.2242724,32.2613894 29.5278434,32.270272 29.5455271,31.9662902 C29.5651757,31.6623085 29.7066457,31.5192002 29.7420132,31.3938571 L29.0435052,31.5320306 Z M30.6085168,29.5393712 C30.6085168,29.5393712 30.1850893,29.1781462 29.638858,29.6824795 C29.2596399,30.033835 29.180063,30.1029218 29.1653266,30.1157522 C29.1633617,30.1177261 29.1633617,30.1177261 29.1653266,30.1157522 L29.1672914,30.1137783 L29.1672914,30.1118044 L30.6085168,29.5393712 Z M29.166309,30.1127913 C29.166309,30.1127913 29.1643441,30.1127913 29.1643441,30.1147652 L29.166309,30.1127913 Z M29.1643441,30.1147652 C28.7900381,30.6240333 28.8165638,30.5796204 28.7664598,30.7118722 C28.7242153,30.8283327 28.5463954,31.5734827 28.5503251,31.6820476 C28.55229,31.7837038 28.5277292,32.0156379 28.4697658,32.0580769 C28.4167146,32.098542 28.0993895,32.3156718 28.0650045,32.270272 C28.0325843,32.2199373 27.7624159,31.8281167 27.6396121,31.801469 C27.5148435,31.778769 27.3203222,31.7570561 27.3989167,31.9307599 C27.4784935,32.1084116 26.9116312,32.0176118 27.3026385,32.3561369 L27.6916809,32.6936751 C27.6916809,32.6936751 28.0473207,33.0016046 28.26935,33.0489784 C28.488432,33.1003 28.8568434,33.0697044 29.0346633,32.780527 L29.1643441,30.1147652 Z M30.2607365,27.267404 C30.2607365,27.267404 28.0925125,28.1457927 28.9776823,30.1650998 L30.2607365,27.267404 Z M29.2429386,27.9562976 C29.2429386,27.9562976 29.1368361,26.6150276 29.1682738,26.0850335 C29.1859576,25.7948691 29.4944407,24.3381256 29.7705037,23.0827205 L29.2429386,27.9562976 Z M35.0373131,25.1938144 L35.2986396,25.0359018 L35.0373131,25.1938144 Z M41.0252265,38.5482841 C41.0252265,38.5482841 42.1393026,39.8125717 43.0392089,40.0227928 L41.0252265,38.5482841 Z M39.0043672,19.901769 C39.0102618,19.8050475 39.8345209,17.2281115 41.4260581,16.5678396 C42.0115867,16.2293145 42.692411,16.5145441 42.692411,16.5145441 C43.0293846,16.6596263 43.9941313,16.2885317 45.0905236,17.134351 L45.9707812,16.8580039 C47.4807768,16.6181742 48.2284063,17.9268747 48.2284063,18.7381506 C48.2284063,19.5484396 47.1271018,20.5807931 47.1271018,20.5807931 L46.0012366,21.5026078 C45.691771,22.0572757 44.5246437,22.6603044 44.1690039,22.9050689 C43.6316144,23.2761634 43.0598399,23.3393285 42.500837,23.221881 C40.7442514,22.8557212 39.1134169,20.7071231 39.1134169,20.7071231 L39.0043672,19.901769 Z M34.6865855,18.4361428 C34.6865855,18.4361428 35.1080481,17.8893705 35.7535049,17.6031539 C35.9077465,17.5360411 38.9807888,15.9164502 41.7532075,16.4207835 L34.6865855,18.4361428 Z M44.6710258,30.3170907 C44.6710258,30.3170907 43.6571576,30.1858259 42.9164051,30.6970679 C42.7641284,30.800698 42.6197111,30.9359106 42.500837,31.1036928 C42.0430244,31.7452126 40.1685472,33.3085472 38.9267552,34.313266 C38.5141344,34.6468563 38.1702837,34.9202425 37.9757625,35.0742073 C37.8676952,35.1590853 37.5041959,35.7107923 37.5041959,35.7107923 C37.5041959,35.7107923 37.9354829,28.7290823 42.4919951,23.26432 L44.6710258,30.3170907 Z M38.9729294,34.376431 C38.9729294,34.376431 38.7273218,36.8132196 38.4286629,37.5327088 C38.1241095,38.251211 37.9148518,38.8157485 37.9168167,39.0990042 C37.9207464,39.3753512 37.7173833,40.1195143 37.6279822,40.3139441 C37.5680539,40.4392872 37.454092,40.6514823 37.3912164,40.8863772 C37.3568314,41.0176421 37.3352179,41.1548286 37.3489719,41.2910282 C37.3853218,41.6749532 37.4089002,41.9947262 37.6829983,42.0272956 C37.9590612,42.0638129 38.3824887,41.9700523 38.3824887,41.9700523 C38.3824887,41.9700523 38.7705487,42.1141476 38.9670348,42.125991 C39.1654858,42.1378344 39.4002866,42.1723778 39.5447039,42.0815781 C39.6901036,41.9907784 39.9730436,41.8891221 40.0958474,41.7963485 C40.220616,41.7035748 40.5792031,41.3877497 40.5723261,41.146933 C40.567414,40.9061163 39.9828679,40.0751013 39.9828679,40.0751013 C39.9828679,40.0751013 39.9514301,39.976406 39.9180275,39.8204673 C39.832556,39.4424641 39.7146644,38.74074 39.9052559,38.3558281 C40.1754242,37.8139906 43.1403992,33.6677983 42.939001,30.7276634 L38.9729294,34.376431 Z M38.321578,23.6768666 C38.2881754,23.9127485 37.9325356,25.245136 37.8952032,25.5234569 C37.8578709,25.7998039 37.8215209,26.0781248 37.9580788,26.4225716 C38.0985663,26.7719532 38.2842457,27.6394855 38.2616498,28.0174887 C38.2390539,28.3925311 38.061234,29.3992238 37.9246761,29.969683 C37.9020802,30.0752871 37.8804668,30.162139 37.8637655,30.2351736 L37.7940129,30.5411292 L37.2939558,31.6159217 C37.2939558,31.6159217 36.4687143,33.2216953 36.3272443,33.5918029 C36.1847919,33.9638844 35.5167392,35.2183025 36.2044405,36.9918582 L36.479521,38.0024987 C36.945193,39.464177 37.1102413,39.592481 37.6378065,39.6813068 L38.321578,23.6768666 Z M31.6518579,21.8875197 C31.6518579,21.8875197 31.4337584,21.7296071 31.4956515,21.5045817 C31.558527,21.2805432 31.325691,20.8610879 31.5084231,20.7594317 C31.6312269,20.6923188 31.6459634,20.3646502 31.7874333,20.1228466 C31.8581683,20.0024382 31.9623059,19.9027559 32.1253894,19.8701864 C32.6166046,19.7714911 32.4191361,19.305649 32.7787056,19.1960971 C33.1431873,19.0895061 33.4624772,18.8171069 33.5941229,18.8250025 C33.7218388,18.8328982 34.1875108,18.6364944 34.3162092,18.6078727 C34.3761375,18.5980032 34.5343088,18.5723424 34.6964098,18.5555642 C34.8919134,18.5338512 35.0972414,18.5239817 35.1571697,18.5614859 C35.2200452,18.6039249 35.4607407,18.7154507 35.6857172,18.8032896 C35.8497831,18.8664546 36.0030422,18.920737 36.0737772,18.9246849 C36.2348958,18.9345544 36.8489148,19.1832667 36.958947,19.1901754 C37.0748738,19.1970841 37.4432852,19.219784 37.4030056,19.3638792 C37.3607611,19.5069875 37.2713599,19.6313437 37.3499543,19.6678609 C37.4285488,19.7053652 37.6623672,19.8336692 37.6417362,19.9126254 C37.6220876,19.9935556 37.4983013,20.1652856 37.5277743,20.2610201 C37.5513526,20.3626763 37.7910656,20.6992275 37.8333101,20.816675 C37.8755546,20.9301746 37.8961857,21.1107872 37.8126791,21.1857956 C37.7232779,21.262778 37.6407538,21.3239691 37.700682,21.390095 C37.7606103,21.4591818 37.7203306,21.6180813 37.6525429,21.6802594 C37.5847552,21.7414505 37.4914243,21.9131805 37.4256015,21.9921368 C37.3538841,22.0671452 37.1593628,22.3958008 37.0571901,22.4698223 C36.9559998,22.5458178 36.6681476,22.5122613 36.627868,22.6385914 C36.5875883,22.7678823 36.1916689,22.8882907 36.0953907,22.8823689 C35.9981301,22.8764472 35.4970906,23.2031289 35.4096543,23.0027773 C35.3251653,22.8043996 35.329095,22.4629136 35.3693746,22.3355966 C35.4096543,22.2102535 35.561931,22.1066234 35.6002458,22.008915 C35.6356133,21.9141674 35.6297187,21.7700722 35.5835445,21.7167767 C35.5403175,21.6654551 35.2927451,21.454247 35.498073,21.2440259 C35.7053658,21.0268961 36.105215,20.2748374 36.1818446,20.0665902 C36.2594566,19.8603169 36.1926513,19.6471349 36.1454947,19.5948264 C36.0993204,19.5444917 35.5855093,19.2543274 35.50495,19.2178101 C35.4263556,19.1803058 34.7740218,19.0411454 34.6276397,19.050028 C34.4842048,19.0559497 34.0666719,19.0164715 33.8996587,19.1201017 C33.7316631,19.2227449 33.3190424,19.3767096 33.2345533,19.4359268 C33.1500643,19.497118 32.8258623,19.8001127 32.8258623,19.8001127 L32.3680497,20.1948942 C32.3680497,20.1948942 31.8159238,20.7258752 31.7609077,21.8894936 C31.7471537,22.1461015 31.7609077,22.434292 31.8090468,22.753078 C31.8090468,22.753078 31.8787994,23.2712287 32.1971068,23.6630493 C32.2884728,23.7726011 32.9614377,24.2966735 32.9614377,24.2966735 C32.9614377,24.2966735 33.2325885,24.3489821 33.2964465,24.3529299 C33.3612869,24.3568777 33.5479486,24.4318862 33.6373498,24.6144726 C33.7208564,24.798046 33.9232371,25.5264177 34.333893,25.4030485 L34.6227275,25.1306493 C34.6227275,25.1306493 35.0481199,25.3004054 35.1286792,25.3379096 C35.1984317,25.372453 35.872379,25.7099911 36.6720774,24.5572293 C36.7546015,24.4378079 36.8390905,24.3016083 36.9235795,24.1496174 C36.9235795,24.1496174 37.2006249,23.4399978 37.4992838,22.8715125 C37.5690363,22.838943 37.8254507,22.6780695 37.90601,22.647474 C38.7813555,22.3257271 39.1055575,21.1196697 39.1055575,21.1196697 C39.1055575,21.1196697 39.1114521,20.9509007 39.1006453,20.7081101 L31.6518579,21.8875197 Z M28.778249,43.9074423 L28.7762841,44.9348611 L28.778249,43.9074423 Z M24.838703,42.6056505 L24.8367381,43.6468866 L28.8322826,45 L36.1425474,42.8415324 L36.1425474,41.8022702 L24.838703,42.6056505 Z M24.838703,42.6056505 L28.7792314,43.9074423 L36.1435298,41.8022702 L31.9456046,40.934738 L29.264552,41.5663883 L28.9983134,41.6285664 L24.838703,42.6056505 L24.838703,42.6056505 Z M32.1253894,23.7015405 C32.1253894,23.7015405 31.9976734,24.0923741 31.8591508,24.1920564 C31.7206281,24.2897648 31.0614173,25.1533493 31.1852035,25.7188737 C31.3089897,26.2843981 31.5978243,27.2585214 31.5978243,27.2585214 L31.8679926,27.2259519 L34.3938212,26.9209832 C34.3938212,26.9209832 34.5637817,26.8785442 34.7799164,26.797614 C35.0206118,26.7058273 35.3182882,26.563706 35.4853014,26.3751979 C35.7937846,26.0238424 36.6769895,24.562164 36.6769895,24.562164 L32.1253894,23.7015405 Z M29.257675,39.7661849 L28.9973309,41.6305403 L29.257675,39.7661849 Z M28.9973309,41.6305403 L28.7477936,42.9530582 L29.2635696,41.5663883 L30.2194744,39.1345345 L31.3915139,42.338186 L30.7156017,37.824847 L30.6713924,37.3451876 C30.6713924,37.3451876 30.2194744,37.379731 29.9827087,37.7478647 C29.7508551,38.1140245 29.5317731,38.9026004 29.4639854,39.2194125 C29.4020923,39.4947726 29.2517804,39.7494066 29.2419561,39.7642109 L29.2399913,39.7661849 C28.9560689,39.7760544 28.9825945,39.3753512 28.9825945,39.3753512 L28.8794393,37.6600258 C28.7861084,37.5860043 28.7163559,37.5050741 28.6682168,37.4182221 C28.4913793,37.1043709 28.5581846,36.7076155 28.5630967,36.398699 C28.5670264,36.0039176 28.9118595,35.5548537 29.1722036,34.9873553 C29.2881304,34.7277865 29.5072123,34.0398798 29.709593,33.3648035 C29.949306,32.5604363 30.1674056,31.7767951 30.1674056,31.7767951 C30.2862797,30.7967502 30.4532928,30.0782479 30.6301303,29.5502277 C31.0103309,28.4221397 31.4357232,28.160597 31.531019,28.0737451 C31.6695417,27.9503759 31.8787994,27.3039212 31.8787994,27.3039212 L28.9973309,41.6305403 Z M30.7765124,37.8199123 C30.9916647,37.5307349 31.2294129,37.0412059 31.079101,36.3927773 C30.8246515,35.3160109 30.8649312,35.080129 30.9631742,34.7672647 C31.0260498,34.5669131 32.3670673,32.9660743 33.2787627,31.2882531 C33.3770057,31.1125753 33.4664069,30.9349237 33.5538432,30.7562851 C33.9242195,29.9815265 34.1658974,29.2195983 34.107934,28.6057131 L34.9184391,26.8647269 L34.9272809,26.8469617 L30.7765124,37.8199123 Z M31.4573367,21.0900611 L29.7626442,20.2748374 L31.4573367,21.0900611 Z M34.3790848,15.174261 C34.3790848,15.174261 34.0843556,16.3803184 35.7318915,17.5557802 L34.3790848,15.174261 Z M39.4101109,16.3595923 C39.4101109,16.3595923 39.1851344,15.9352023 38.5377127,15.472321 C38.2252998,15.2472956 37.8539412,15.0242441 37.4413204,14.856462 L39.4101109,16.3595923 Z M35.2986396,11.7110407 C35.2986396,11.7110407 37.0483482,12.3338084 38.1535824,14.1794118 C38.1535824,14.1794118 38.5622735,14.8949531 38.5671856,15.2551912 C38.5671856,15.3746126 38.5671856,15.4209994 38.5671856,15.429882 L35.2986396,11.7110407 Z M38.5671856,15.429882 C38.5642383,15.4180386 38.5622735,15.3084867 38.5622735,15.3084867 L38.5671856,15.429882 Z M31.2186061,12.5548861 C31.2186061,12.5548861 31.5320014,13.6760654 32.1204772,13.8300302 C32.1204772,13.8300302 33.0311902,13.8576649 33.7798022,13.2921404 L31.2186061,12.5548861 Z M34.0077261,15.3183563 C34.0077261,15.3183563 33.8711682,15.9430979 33.7827495,15.9085545 C33.6913835,15.877959 33.4349691,15.4436994 33.4349691,15.4436994 L33.7061199,14.4833935 L33.8269589,13.2960882 L33.8328535,13.2398319 L34.7573205,11.7278189 C34.7750042,11.6241888 34.6630072,11.0734687 34.5500277,10.9718124 C34.4370482,10.8731171 34.114811,10.5079442 34.0971272,10.3747055 C34.0774786,10.2394928 33.9723586,9.79635064 33.9723586,9.79635064 C33.9723586,9.79635064 33.2915343,10.3510186 33.1422049,10.4368836 C32.9899282,10.5207746 32.4947832,10.4240532 32.3601903,10.4161575 C32.229527,10.4082619 31.9210439,10.4951138 31.8463792,10.6490786 C31.770732,10.8030434 31.5025285,11.2817159 31.4317935,11.3823851 C31.3590937,11.4850283 31.2765695,11.982453 31.2765695,12.2242566 C31.2746047,12.3466388 31.2195886,12.4482951 31.1586779,12.5420557 C31.0987496,12.6298945 31.0358741,12.7108247 31.0044363,12.7927419 C30.9415607,12.9595371 31.0240849,13.1243583 31.0604348,13.3918228 C31.0977672,13.6592872 31.0427511,14.1063772 31.008366,14.2396159 C30.9769282,14.3698938 30.7499868,14.3708808 30.6998829,14.3679199 C30.6468316,14.364959 30.3589795,14.5327412 30.3589795,14.5327412 C30.3589795,14.5327412 30.4198902,14.1626335 30.4415037,14.0708469 C30.458205,13.9780732 30.2125974,13.4461052 30.1575813,13.2704275 C30.1006003,13.0937628 29.9267101,11.7959187 29.9296574,11.5146369 C29.9335871,11.2392769 30.232246,10.4329357 30.2577892,10.2878536 C30.2784202,10.1437583 30.485713,9.52987316 30.6330776,9.27523912 C30.6831815,9.18641329 30.782407,9.06008323 30.8983338,8.92881839 L30.8983338,8.9307923 C31.1183982,8.67714522 31.3915139,8.40375906 31.4848448,8.33072449 C31.622385,8.22117263 32.5075548,8.00799065 32.5075548,8.00799065 C32.5075548,8.00799065 33.5597378,7.89843879 34.1334772,8.49061098 C34.1334772,8.49061098 34.7779515,8.51528482 34.9655957,8.92388363 C35.1532399,9.3374172 35.5078973,10.0105196 35.4695825,10.2039625 C35.4332326,10.4023402 35.3173058,10.6066396 35.335972,10.7161914 C35.3546382,10.8257433 35.2917626,11.4445632 35.2279046,11.6143192 C35.2200452,11.6350453 35.2131682,11.6567583 35.2072736,11.6755104 C35.1552048,11.8166447 35.1227846,11.9321183 35.1365386,12.0584484 C35.1561872,12.2055045 35.2976572,12.6940465 35.2121858,12.7947158 C35.1276967,12.8953851 34.97542,12.9921065 34.9695254,13.0868541 C34.9665782,13.1776538 34.9646133,13.6168482 34.8260906,13.727387 C34.6856031,13.8389127 34.6246924,14.0057079 34.6217451,14.0856512 C34.6158505,14.1665814 34.7406192,14.7311188 34.5549398,14.9709486 C34.489117,15.0558266 34.4291887,15.1180047 34.3741726,15.1604437 L34.3741726,15.1614306 C34.3211214,15.1663654 34.2327026,15.1495872 34.1560731,15.2127522 L34.0077261,15.3183563 Z M29.1427307,17.9870789 C29.1427307,17.9870789 29.6074202,16.9073516 29.6496647,16.8422127 C29.6496647,16.8422127 30.4660644,15.6174032 29.6496647,13.5615788 C29.5219488,13.2418058 29.0346633,13.8369388 29.0120674,13.8685214 C29.0101025,13.8685214 29.0101025,13.8695083 29.0101025,13.8695083 L29.1427307,17.9870789 Z M26.8851056,11.5866845 C26.8851056,11.5866845 26.4783794,10.8602867 27.1493793,10.0608542 C27.8164496,9.26635654 28.0345491,9.15976555 28.3155242,9.12324826 C28.593552,9.08771793 29.0867321,9.02257899 29.0867321,9.02257899 C29.0867321,9.02257899 30.0092343,8.35243747 30.8983338,8.92980535 L26.8851056,11.5866845 Z M30.8973514,8.93177926 C30.8993162,8.93276621 30.9012811,8.93375316 30.903246,8.93572707 L30.8973514,8.93177926 Z M25.9478669,13.0868541 C25.9478669,13.0868541 25.9537615,12.3170302 26.1640016,12.1285221 C26.3162783,11.9933094 26.6041305,11.7702579 26.9008244,11.7140016 C27.0108566,11.6932755 27.125801,11.6972234 27.2309211,11.7406493 C27.6199635,11.8995488 28.7114437,12.4028952 28.9934012,13.0434281 C29.166309,13.4421574 29.116205,13.7017262 29.0081377,13.8645735 C28.94035,13.9632689 28.8509488,14.0264339 28.7733368,14.0649251 C28.5680089,14.17349 28.1151084,14.2544202 28.1151084,14.2544202 L25.9478669,13.0868541 Z M23.2452009,36.8704629 C23.2452009,36.8704629 23.0369256,33.886902 23.1204322,33.4585641 L23.2452009,36.8704629 Z M27.3684613,22.0799756 L27.422495,24.5355163 L27.3684613,22.0799756 Z M23.0850647,21.2154042 C23.0850647,21.2154042 20.9325597,22.456005 21.3599169,25.9281079 L23.0850647,21.2154042 Z M28.566044,17.8528532 C28.5719386,17.941679 28.7016194,18.7332158 28.6967072,18.79342 C28.6927775,18.8516503 28.9295433,19.4457964 28.771372,19.5790351 C28.5925696,19.7251043 28.333208,19.8445256 28.1485111,19.9363123 C26.7623018,19.9402601 26.0048479,19.6441741 26.0048479,19.6441741 L28.566044,17.8528532 Z M28.198615,19.9599992 C28.1691421,20.6340886 28.4943266,20.7831186 28.5463954,20.8768792 C28.6014115,20.9686658 28.6711641,21.1048654 28.6711641,21.1048654 C28.6711641,21.1048654 28.8931933,21.136448 29.1132577,21.0476221 C29.3362694,20.9587963 29.5602636,20.731797 29.5602636,20.731797 C29.9119737,20.4653195 29.6300161,20.2087115 29.71647,19.9333515 C29.8029239,19.6629262 29.5494568,19.4053313 29.5494568,19.4053313 C29.5494568,19.4053313 29.6486823,19.411253 29.652612,19.3125576 C29.6585066,19.2128753 29.3844085,18.9957455 29.3460937,18.9750195 C29.307779,18.9533065 29.3775315,18.8190808 29.3038492,18.6818943 C29.2340967,18.5516164 29.1633617,18.1963131 29.1633617,18.1963131 C29.159432,18.1528871 29.0985213,17.8943053 29.0916443,17.8597619 C29.0061728,17.5281455 28.7654774,17.4491892 28.7654774,17.4491892 C28.7546706,17.2577202 28.5247819,17.1106641 28.5247819,17.1106641 C28.5817629,16.6931827 28.171107,16.7454912 28.1219854,16.5599439 C28.0738464,16.3793314 27.7034701,16.1997059 27.7034701,16.1997059 C27.5482461,15.9519805 27.1081173,15.8888155 27.1081173,15.8888155 C26.9627176,15.8513112 26.306454,16.1168017 26.306454,16.1168017 C26.306454,16.1168017 26.0559343,16.0427802 25.7513809,16.1730581 C25.7513809,16.1730581 25.1147659,16.026002 24.7974409,16.6833131 C24.7974409,16.6833131 24.4663619,16.9083386 24.3209622,17.1925812 C24.3209622,17.1925812 23.836624,18.6325466 23.7698187,19.134906 C23.6961364,19.6718088 23.7354336,19.5563352 23.6823824,19.6964826 C23.5939637,19.9412471 22.5732185,20.8443097 23.0860471,21.2154042 C23.5998582,21.5845249 23.7462404,21.6437421 23.8405537,21.8875197 C23.9378143,22.1322842 25.4055653,22.3148706 25.7209255,22.1717623 C26.0372681,22.028654 26.2160704,20.9844571 26.2160704,20.9844571 C26.235719,20.7466013 26.2494731,20.5284845 26.1669489,20.2067376 C26.1335463,20.0784337 26.0913018,19.9540775 26.04611,19.8474865 C25.8790968,19.4694833 25.8162213,19.0569366 25.8260456,18.8506633 C25.840782,18.6404422 25.7091363,18.3157345 25.5735609,18.1351219 C25.432091,17.9564833 25.226763,17.7561317 25.2788318,17.3909589 C25.3309006,17.0238121 25.6305419,16.5046745 25.7906781,16.4424964 C25.9537615,16.3842662 26.3545931,16.1089061 27.139555,16.2974143 C27.139555,16.2974143 27.4391963,16.5638917 27.4971597,16.6083047 C27.5521758,16.6507437 27.7859942,16.7997737 27.9471128,16.9379472 C28.107249,17.0810555 28.1661948,17.2675897 28.1730718,17.3189113 L28.198615,19.9599992 Z M18.9254543,33.270056 C18.9254543,33.270056 19.3203914,33.7793241 20.1534923,33.7368851 L20.1534923,33.7349112 C21.1712903,33.5809464 21.9228495,32.9907481 22.227403,32.5051669 C22.6469007,31.716591 22.9544015,30.6388376 21.7342229,29.0952421 L18.9254543,33.270056 Z M26.7249694,29.0350379 C26.7249694,29.0350379 26.3919255,28.9343687 26.3968376,28.8267907 L26.7249694,29.0350379 Z M26.1836502,29.3222414 L26.0068128,29.1791332 L26.1836502,29.3222414 Z M24.0252506,28.7705344 C24.0252506,28.7705344 24.2060178,29.1475506 24.4064336,29.3804717 C24.6048846,29.6133928 25.2886561,29.905531 25.7219079,29.7713053 C25.9066049,29.715049 25.9557264,29.5749016 26.0647762,29.5541755 C26.1689138,29.5324626 26.3143135,29.3814587 26.447924,29.3646804 C26.5795697,29.3439544 26.7298815,29.0350379 26.7298815,29.0350379 C26.7298815,29.0350379 27.1729577,29.140642 27.189659,28.8751514 C27.2043954,28.6116348 27.2191319,27.9493889 27.2191319,27.9493889 C27.2191319,27.9493889 27.5747717,27.7322591 27.6592607,27.2318736 L24.0252506,28.7705344 Z M21.9395508,26.2567634 C21.9395508,26.2567634 21.7361877,25.3872573 22.0898627,25.223423 C22.0898627,25.223423 22.1085289,25.2056578 22.1389842,25.1790101 C22.2018598,25.1188059 22.3226987,25.0112279 22.3993283,24.9233891 C22.5132902,24.797059 22.7687221,24.4911034 22.9288583,24.477286 C23.0870296,24.45656 23.25699,24.3104909 23.3670222,24.1851477 C23.482949,24.0558568 23.8277821,23.5988973 24.3494527,23.6847623 C24.8740705,23.7696403 26.0343208,23.8130662 26.1865975,23.9275528 C26.3369094,24.0440134 27.0511363,24.5384772 27.1542915,24.5443989 C27.1945711,24.5473597 27.294779,24.5453858 27.4166004,24.5661119 C27.6199635,24.6016422 27.8763778,24.7013245 27.9736385,24.9914889 C27.9736385,24.9914889 28.2791743,25.222436 28.015883,25.606361 C28.015883,25.606361 28.5807805,25.9300818 28.6682168,26.2044549 C28.7586004,26.4729063 28.8332651,27.0098091 28.3459796,27.1667347 C28.3459796,27.1667347 27.7614335,27.2377954 27.6582783,27.2318736 C27.6582783,27.2318736 27.6179986,26.99007 27.486353,26.9535527 C27.3576546,26.9219702 27.2250265,26.9140746 27.0884687,27.010796 C26.9489635,27.1094914 26.4832915,27.3996558 26.349681,27.4460426 C26.2121407,27.4874946 25.9704628,27.5279597 25.9429548,27.606916 C25.9095522,27.6848854 25.8162213,27.8654979 25.3289358,28.1250667 C25.3250061,28.1280275 23.5251935,28.5376133 23.5143868,28.5395872 L21.9395508,26.2567634 Z M22.2676826,32.5298408 C23.6096825,32.3531761 23.8680617,30.6812766 23.9024468,30.1532564 C23.9063765,30.0802218 23.7816079,29.6262232 23.7816079,29.6262232 C23.7816079,29.6262232 23.6715757,29.1139942 23.5556489,28.6688781 C23.4888436,28.4014137 22.1222829,26.4748802 22.1222829,26.4748802 L22.2676826,32.5298408 Z M20.1574221,33.7980762 C20.1574221,33.7980762 20.7154425,34.9459033 20.7734059,35.3495673 C20.8058261,35.5923579 21.1172566,36.6010245 21.3697412,37.3965092 C21.5347895,37.9077511 21.6733122,38.3321412 21.7027851,38.4051758 C21.7558364,38.5621014 22.0987046,38.9657654 21.9729535,39.6181418 C21.9621467,39.6605808 21.9523224,39.7030198 21.9415157,39.7474327 C21.9110604,39.8550107 21.8697983,39.9685103 21.8108525,40.0859578 C21.3599169,41.019616 21.2449725,42.0450608 18.8989287,41.9582089 L18.3251893,41.9019525 L20.1574221,33.7980762 Z M19.8823415,25.4899005 C19.8823415,25.4899005 21.3009711,25.8590211 21.9149901,26.2913068 C21.9277617,26.2982155 21.9346387,26.3041372 21.9434806,26.3120328 C22.0181453,26.3663153 22.0780735,26.4215847 22.1222829,26.4758671 L19.8823415,25.4899005 Z M10.6150754,37.5781086 C10.6150754,37.5781086 10.3920637,37.7794472 10.3753624,38.0429638 C10.3596435,38.3104282 10.3557138,38.8118007 10.1454737,39.2815906 C9.93326872,39.7444719 9.49903448,40.8103818 9.53734927,41.0511985 C9.57566405,41.2930021 10.1474386,42.2888384 10.1533331,42.339173 C10.162175,42.3914815 10.3213287,42.552355 10.3498192,42.5612376 C10.3773273,42.574068 10.6229349,42.6076244 10.6750037,42.5997287 C10.7231428,42.594794 10.8999803,42.6244026 10.9608909,42.6076244 C11.0218016,42.594794 11.1848851,42.5503811 11.1868499,42.4714248 C11.1897972,42.3914815 11.1770256,42.2819297 11.2389187,42.2562689 C11.2998294,42.2296211 11.5994707,41.8674091 11.4933682,41.8318788 C11.3882482,41.7973354 11.2015864,41.7321965 11.1053082,41.6976531 C11.0060827,41.6611358 10.8793492,41.6660706 10.826298,41.5427014 C10.7732467,41.4193322 10.7192131,41.3462976 10.7653873,41.2209545 C10.8145088,41.0916636 10.9599085,40.9742161 11.0532394,40.9090772 C11.1455879,40.8468991 12.2635937,40.0533884 12.4404311,40.0839839 C12.6182511,40.1185273 13.049538,40.2132748 13.2283403,40.381057 C13.4041954,40.5527869 14.934822,41.8407614 15.2629537,41.9907784 C15.5910855,42.1398084 16.9212963,42.9500973 17.5824719,43.0142493 C18.2436476,43.0882708 19.4048804,43.3359962 19.903955,43.4751566 C20.4010648,43.615304 21.4807558,43.8215774 21.9503576,43.2797398 C22.4189769,42.7398762 22.6282346,42.7053328 22.6577075,42.3648338 C22.6871804,42.0272956 22.855176,41.0630419 22.5751833,40.5853564 C22.2981379,40.1126056 22.0309169,39.7790152 22.0309169,39.7790152 L10.6150754,37.5781086 Z M10.0433009,35.1798113 C10.0433009,35.1798113 9.70534487,36.6355679 10.6573199,37.527774 C10.677951,37.5475131 10.6995644,37.5662652 10.7201955,37.5840304 C11.7537123,38.4693278 12.6447767,39.4809552 13.8521837,40.0593101 C15.0605731,40.6416127 17.7219771,41.699627 18.0078643,41.8002963 C18.0658277,41.8190484 18.1788072,41.8614874 18.3183123,41.9197177 C18.851772,42.1358605 19.8037471,42.5553158 19.9638833,42.7122415 L10.0433009,35.1798113 Z M9.59433023,33.8770325 C9.59433023,33.8770325 9.67881925,34.6804127 9.97551323,35.0436117 C10.000074,35.0761812 10.0354415,35.1126984 10.0727738,35.1511896 C10.4608339,35.5420233 11.4285278,36.1667649 12.6015497,36.2378256 C13.8885336,36.313821 15.2491997,36.50529 16.0096008,35.7867878 L16.0096008,35.7838269 C16.0125481,35.7838269 16.014513,35.7798791 16.014513,35.7798791 L9.59433023,33.8770325 Z M13.2666551,29.501867 C13.2666551,29.501867 13.3776698,29.6252362 13.5594194,29.8157183 C14.1400358,30.4325643 15.4417561,31.779756 16.0430035,32.1390071 L13.2666551,29.501867 Z M16.0086184,35.7858008 C16.0803358,36.6493853 16.2218058,37.3935483 16.5597619,37.6708823 C16.5597619,37.6708823 16.9664881,38.016316 17.0156096,38.0587551 C17.0627663,38.103168 17.4262655,38.3321412 17.4577033,38.4150453 C17.4940532,38.4940016 17.5981908,38.7703486 17.5441572,38.825618 C17.4911059,38.8838483 17.2759537,39.0012958 17.2523753,39.0417609 C17.2317443,39.0782782 17.1590444,39.2924471 17.3044441,39.3714034 C17.3044441,39.3714034 17.3683021,39.4237119 17.4459141,39.3289644 C17.5195964,39.2342168 17.6315935,39.1996735 17.7003636,39.1858561 C17.772081,39.167104 18.1375451,39.0131392 18.1473694,38.8522658 C18.1552289,38.7022488 18.1650532,38.5788796 18.1650532,38.5650623 L16.0086184,35.7858008 Z M18.1650532,38.5650623 L18.1650532,38.5650623 L18.7702303,39.8382325 C18.7702303,39.8382325 18.9549272,39.9280452 19.0079785,39.8806715 C19.0610297,39.8342847 19.1327471,39.7790152 19.0983621,39.6892025 C19.0669243,39.5964288 18.958857,39.2203995 18.958857,39.2203995 L18.8006857,38.6834967 L18.6729697,38.357802 L18.5501659,37.9886813 L18.1650532,38.5650623 Z M18.5501659,37.9876944 L18.5501659,37.9886813 L19.1514133,38.7940355 L19.4657911,39.3299513 C19.4657911,39.3299513 19.6229799,39.5115508 19.7271175,39.4661509 C19.8273254,39.4256858 19.9481644,39.3704164 19.8666227,39.1582214 C19.7782039,38.9410916 19.5964543,38.5147276 19.5964543,38.5147276 C19.5964543,38.5147276 19.3302157,37.9906553 19.0846081,37.7942515 L19.6367339,38.0074335 L20.3912405,38.4900538 C20.3912405,38.4900538 20.511097,38.4772234 20.5533415,38.421954 C20.5965685,38.3627368 20.5435172,38.2600936 20.4885011,38.1969286 C20.4344674,38.1357374 19.8685875,37.4350004 19.8685875,37.4350004 C19.8685875,37.4350004 19.6210151,37.2484661 19.4962464,37.1941837 C19.4962464,37.1941837 19.3734426,37.0945013 19.3498643,37.0224537 C19.3243211,36.953367 19.0109258,36.6641896 18.9559097,36.611881 C18.9008936,36.5566116 18.4126256,36.249669 18.2456125,36.2111778 C18.0815466,36.1707127 17.637488,36.1144564 17.6728555,35.8568615 C17.708223,35.6032144 18.237753,34.3379398 18.237753,34.3379398 L18.6238482,33.5533117 C18.6238482,33.5533117 18.6867237,33.4279686 18.7780898,33.2453822 C18.9608218,32.8733006 19.2378672,32.2663241 19.2526037,32.0156379 C19.2526037,32.0156379 20.1859125,31.8883209 20.214403,31.4372831 C20.2389638,30.9882192 20.5710253,30.3170907 17.8811308,29.3291501 C17.8811308,29.3291501 17.0814324,29.8680268 16.6884603,30.69312 C16.4900093,31.1096145 16.2886111,31.6011174 16.1402641,32.1676288 C15.9968293,32.7252576 15.9064457,33.3628296 15.930024,34.0744232 C15.9467253,34.6350129 15.9634266,35.2360676 16.0105833,35.7858008 L18.5501659,37.9876944 Z M11.319478,31.9633294 C11.319478,31.9633294 10.4559217,31.3790528 10.324276,31.3711572 C10.2633653,31.3681963 10.0315118,31.3287182 9.78000958,31.2941748 C9.51180608,31.2576575 9.21412966,31.2250881 9.06283538,31.2448271 C8.77007111,31.2773966 7.83872708,31.8034429 7.77879882,32.3600847 C7.71887057,32.9147527 7.28758361,34.4020918 8.66396863,34.3784049 C8.66396863,34.3784049 9.18662161,34.0852797 9.43222921,33.8602543 C9.46857914,33.8276848 9.49706962,33.7961023 9.51868309,33.7694545 C9.6935557,33.5404813 10.7044766,32.9601526 10.890156,32.971996 C10.9982233,32.9789047 11.4511237,32.9680482 11.8391837,33.0045655 C12.1054224,33.0312132 12.3412057,33.0795739 12.4129231,33.1723476 C12.5828836,33.3934252 12.6988103,34.14351 12.7990182,34.228388 C12.901191,34.3152399 13.7058015,34.9745249 13.7058015,34.9745249 L11.319478,31.9633294 Z M13.5387884,29.8364443 C13.5387884,29.8364443 13.0406961,30.077261 12.6015497,30.3664384 C12.378538,30.5095467 12.1732101,30.6684462 12.0504063,30.8115545 C11.7281691,31.1856099 11.460948,31.6060522 11.3853009,31.972212 C11.3744941,32.0255075 11.3676171,32.0748551 11.3656523,32.1261767 C11.3401091,32.5189843 11.6908367,32.8575094 11.8411486,32.9749569 L13.5387884,29.8364443 Z M16.30433,26.9190093 L15.0556609,27.4559121 C15.0556609,27.4559121 13.7676946,27.777659 13.4454575,27.8141763 C13.1281324,27.8457588 11.8932174,28.118158 11.9295673,28.8386342 C11.9659173,29.5561495 11.8450783,29.8117704 12.0985454,30.012122 C12.3529948,30.2164214 12.5819011,30.3368298 12.5819011,30.3368298 L16.30433,26.9190093 Z M20.3588203,16.8412257 C20.3588203,16.8412257 21.1437822,17.4008284 21.2174645,17.6761885 L20.3588203,16.8412257 Z M17.603103,17.8982531 C17.603103,17.8982531 17.4626154,18.4233124 17.6148921,18.6680769 C17.6148921,18.6680769 18.0206359,19.8040605 19.2378672,19.8958472 C19.3528116,19.9057168 20.4727822,19.9491427 20.4727822,19.9491427 L17.603103,17.8982531 Z M22.636094,14.3758155 L22.8944732,14.6561104 L22.636094,14.3758155 Z M17.9813387,11.4337067 C17.8683592,11.1316989 18.1788072,10.8504171 18.315365,10.7704739 C18.3359961,10.7586304 18.5403416,10.7142175 18.5403416,10.7142175 C18.5383767,10.6934915 18.5364119,10.6816481 18.5354294,10.6638829 C18.5059565,10.2315972 19.8233957,10.0203891 19.8233957,10.0203891 C19.8626929,9.17259594 21.8747104,9.53283402 21.8747104,9.53283402 C22.8247206,9.3778823 23.7855376,10.0993454 23.7855376,10.0993454 C24.5341496,9.95623713 24.9310515,10.8602867 24.9310515,10.8602867 C25.6452784,11.0754426 25.3338479,12.1058222 25.3132169,12.1985958 C25.2955331,12.2884086 25.297498,12.4611255 24.9241744,12.5193557 C24.8033355,12.5371209 24.662848,12.4976428 24.521378,12.4334908 C24.2256664,12.2992651 24.1834219,12.3634171 23.7540998,12.0890439 L23.2176928,11.684393 C23.2176928,11.684393 23.2550252,12.1127308 23.0752404,12.2884086 C22.8915259,12.4630994 22.8276679,12.4591516 22.706829,12.4522429 C22.5889373,12.4453342 22.3226987,12.7068769 22.156668,12.8055723 C21.9926021,12.9013068 21.7263634,13.1865364 21.3137427,13.2043016 C21.3137427,13.2043016 20.5386051,13.3710967 20.3185407,13.2497014 C20.0994587,13.131267 19.6062786,13.3543185 19.5375085,13.1648234 C19.4942815,13.0434281 19.3626359,12.8598547 19.1307823,12.7127986 L17.9813387,11.4337067 Z M18.8557018,15.06767 L20.7753708,14.5672845 L20.885403,14.6265018 L21.6418744,15.0390484 C21.6418744,15.0390484 22.1399666,15.3074998 22.3207338,15.2788781 C22.5005186,15.2502565 22.5054308,15.1495872 22.5093605,15.0706309 C22.5152551,14.9926616 22.642971,14.8584359 22.7038817,14.8436316 C22.7628275,14.8278403 22.8934908,14.6570973 22.8934908,14.6570973 C22.8934908,14.6570973 23.1282916,14.6501886 23.2127807,14.5959062 C23.2913751,14.5445846 23.4102492,14.4034502 23.4230208,14.3886459 L18.8557018,15.06767 Z M23.4240032,14.3886459 C23.4240032,14.3886459 23.7206972,14.7242102 23.8071511,14.2929114 C23.8945874,13.8596388 24.2836298,12.9457197 24.3543648,12.7503029 C24.4280471,12.5578469 24.5017294,12.4769167 24.5017294,12.4769167 L23.4240032,14.3886459 Z M20.8696841,14.6541365 C20.8696841,14.6541365 20.9581029,15.3677039 20.5641483,15.8453895 C20.5012727,15.9233588 20.4216958,15.9944195 20.3313122,16.0556106 L19.6681717,16.4967789 L20.8696841,14.6541365 Z M16.5401133,18.3986386 L17.5480869,17.8903574 L18.3399258,17.4916282 C18.3399258,17.4916282 19.5198247,17.0790815 20.1672464,16.7899041 C20.4000824,16.686274 20.5631658,16.5974482 20.5788847,16.5510613 C20.6270238,16.3743966 20.6201468,15.8740112 20.6201468,15.8740112 L16.5401133,18.3986386 Z M14.122352,16.0398194 C13.4729655,16.2806361 12.7990182,15.6025989 12.1732101,14.8081012 C11.545437,14.0116296 12.0238807,13.321749 12.9139626,12.3407171 C13.706784,11.4692371 16.1157033,11.2224987 16.649163,11.1820336 L14.122352,16.0398194 Z M13.7942203,18.8506633 L12.6270929,18.4608166 C12.4345366,18.4075211 11.3096537,17.9446399 11.0709231,17.9288486 C10.8371047,17.9150313 10.2555059,17.6830972 9.98828483,17.5084064 C9.72008132,17.3287808 9.17581487,16.5007267 9.18662161,16.3003751 C9.19742834,16.1375278 9.27798764,15.2354521 9.39194957,14.5682715 C9.41651033,14.4182545 9.44696567,14.280081 9.47250886,14.1646075 C9.6287153,13.5378919 10.1582453,13.3306316 10.5286216,13.1135018 C10.8989978,12.896372 11.3037592,12.0841092 11.7144151,11.8284882 C12.1270358,11.5748411 13.2106566,11.3626461 14.0545643,11.173151 C14.8965072,10.9866167 16.5145701,11.1622945 16.5145701,11.1622945 C16.5145701,11.1622945 16.5656565,11.1593336 16.649163,11.1613075 C16.8918234,11.1682162 17.4233182,11.21559 17.9567779,11.4830544 C18.1002128,11.5541151 18.2456125,11.6429409 18.3851176,11.7505188 C18.6818116,11.9844269 18.8989287,12.2588 19.0384338,12.5499513 C19.2919009,13.0700759 19.3115495,13.6484307 19.1533782,14.1517771 C19.0531703,14.4676022 18.8989287,14.7627014 18.7250385,15.0094398 C18.4755012,15.3706648 18.1994382,15.6331945 18.0265305,15.7180725 C17.7406432,15.8601938 17.4606506,15.9233588 17.3162333,16.3536706 C17.1727985,16.7820085 16.9546989,17.7650143 16.4929566,18.176574 C16.4929566,18.176574 16.4212392,18.1973 16.4683959,18.3966647 C16.4850972,18.453908 16.5076931,18.5269425 16.5460079,18.6197162 C16.719898,19.028315 17.2877428,20.1376509 17.2779185,20.9755745 C17.2661294,21.8134982 17.4184061,22.6168784 17.6178394,23.2662939 C17.8182552,23.9166964 18.2072977,24.6973767 18.365469,24.7072462 C18.5216754,24.7171158 18.8360532,24.8138372 18.9460854,24.9431281 C19.0571,25.0684713 19.4834748,25.2510577 19.600384,25.3004054 C19.6691541,25.3270531 19.8391146,25.4050224 19.8705524,25.4918744 C19.8931483,25.5501046 19.8567984,25.6103088 19.6986271,25.6645913 C19.2919009,25.8007909 18.9421556,25.6981477 18.9421556,25.6981477 C18.9421556,25.6981477 18.7279858,25.5767524 18.6592157,25.5807002 C18.591428,25.5866219 18.4951498,25.6823564 18.4332567,25.7168998 C18.3772582,25.7514432 18.1404924,25.8165821 18.0510913,25.9320557 C18.0510913,25.9330426 18.0510913,25.9330426 18.0510913,25.9340296 C18.0432318,25.9429122 18.0353724,25.9527817 18.0314426,25.9626513 L13.7942203,18.8506633 Z M18.0540385,25.925147 C18.0540385,25.925147 18.0540385,25.9271209 18.0520737,25.9310687 L18.0540385,25.925147 Z M18.0520737,25.9330426 C18.0324251,25.9814034 17.9331996,26.243933 17.9096213,26.3337458 C17.8850605,26.4314542 17.8251323,26.7660315 17.8162904,26.904205 C17.8074485,27.0443524 17.8182552,27.224965 17.7151001,27.2782605 C17.7151001,27.2782605 17.4665452,27.4618338 17.32704,27.4746642 C17.1855701,27.4845338 16.9478219,27.5092076 16.8161762,27.4036036 C16.6825657,27.2950387 16.5352011,27.1065305 16.4035554,27.0019134 C16.3760474,26.9782265 16.3446096,26.946644 16.3161191,26.9081528 C16.2051045,26.7620837 16.1029317,26.5104105 16.155983,26.1669507 C16.2208234,25.7317041 16.4792026,25.3912051 16.4860796,25.2885619 C16.4909918,25.1898666 16.0125481,23.924592 16.0125481,23.924592 C16.0125481,23.924592 15.2776902,22.9257949 15.1548864,22.6780695 C15.0595906,22.4944962 14.6440226,22.0365497 14.3630475,20.9696528 C14.2687342,20.6054669 14.1891573,20.1692334 14.1420006,19.6491088 C14.1420006,19.6491088 14.0398279,19.347101 14.0663535,18.7884852 C14.0702832,18.6680769 14.0810899,18.5348382 14.0997561,18.3917299 C14.2048762,17.580454 14.1714735,16.5214527 14.1822803,16.3220881 C14.18621,16.2747143 14.1970167,16.1779929 14.2117532,16.0506759 C14.2589098,15.6558944 14.3699245,14.9640399 14.5487268,14.4922761 C14.7854926,13.8685214 15.6893285,12.3495997 15.6893285,12.3495997 L18.0520737,25.9330426 Z M13.9975834,18.7855244 C13.9975834,18.7855244 13.9376551,18.8289503 13.8344999,18.9039588 C13.5692437,19.0954278 13.0171178,19.4902093 12.4237298,19.8840038 C11.5984883,20.43275 10.8891735,19.6727957 10.472623,19.367827 C10.0521428,19.0658192 9.16402571,19.367827 8.36236249,19.4813267 C7.89570804,19.5454787 7.48898185,19.261236 7.19523516,18.9789673 C6.98695991,18.7776288 6.83271833,18.5792511 6.7541239,18.5072035 C6.56451483,18.3364605 6.4151854,17.5705845 6.62247822,17.3820763 C6.83271833,17.1955421 7.43101846,16.474079 7.43101846,16.474079 C8.36530978,14.7775057 9.33103888,14.557415 9.33103888,14.557415 L13.9975834,18.7855244 Z M7.2030946,18.9740325 C7.2030946,18.9740325 7.19916488,18.9760064 7.19523516,18.9799543 C7.13137718,19.0352237 6.65882815,19.4862615 7.39270367,20.6133625 L7.2030946,18.9740325 Z M10.2908734,21.1976391 C10.2908734,21.1976391 9.47938587,22.0404975 9.47938587,23.3758458 C9.48233316,24.7082332 9.85762158,26.6841144 9.85074457,27.1420609 C9.84386756,27.4243296 9.73187049,28.117171 9.58548836,28.7971821 C9.49412233,29.2176244 9.26816333,30.1581912 9.67292466,31.1688317 L10.2908734,21.1976391 Z M8.66888078,21.0140657 C8.66888078,21.0140657 7.47228053,21.8401459 7.49192914,23.8357662 C7.51157775,25.692226 7.7846934,28.2425142 7.01839768,29.6242493 C6.96043429,29.7268924 6.8995236,29.8255878 6.83271833,29.9213223 C6.83271833,29.9213223 6.24129522,30.6190985 6.73644015,30.6477202 C7.23256751,30.6753549 7.52336691,30.6368637 7.76602723,30.9132107 C7.86623513,31.0276973 7.98019706,31.141197 8.09710628,31.2023881 C8.09710628,31.2023881 8.59814579,31.3168747 9.14634196,31.2339706 L8.66888078,21.0140657 Z" id="Stroke-9" stroke="#1E3352" stroke-width="0.263" stroke-linecap="round" stroke-linejoin="round"></path>
                <path d="M37.0587453,34.8916559 C37.0587453,34.8916559 35.8504997,35.8359484 37.6525622,36.3627945 M46.7629894,24.0035027 C46.7629894,24.0035027 47.0829634,25.6301041 46.7629894,27.4198455 C46.4420338,29.2086272 47.1232056,34.5375462 46.9799043,35.5960367 M42.8918921,19.3453769 L43.9264095,18.3348688 M38.4927395,26.2730675 C38.4927395,26.2730675 38.4456267,27.0657358 38.5810759,28.203877 M41.5040291,33.9070582 C42.8977812,35.4444125 44.4309085,37 44.4309085,37 M36.8437934,23.7069718 L39.1925601,23.5918142 C39.1925601,23.5918142 39.7029481,23.5303968 40.0337189,23.3298306 M36.4914293,22.7434864 C36.4914293,22.7434864 36.3530356,23.584137 36.1498619,24.1042656 M27.3319263,18.3444652 C27.717662,18.1563745 27.7755714,17.9164627 27.7755714,17.9164627 C27.7755714,17.9164627 27.213163,17.5249268 26.8833737,17.3896166 C26.5535845,17.2543064 26.8872998,17 26.8872998,17 M36.5100781,19.3847224 C36.5100781,19.3847224 38.2051554,19.051725 38.2807321,20.8347488 M17.0829411,29.2086272 C17.0829411,29.2086272 17.6188486,28.5695024 18.8545767,28.5695024 C18.8545767,28.5695024 19.380669,28.5474305 19.8046837,28.5474305 M22.7884909,31.2987381 C22.6589309,31.7843194 22.6540233,32.3466724 22.2653432,33.3514227 C22.2653432,33.3514227 22.065114,33.8792284 21.8324948,34.3446572 C21.6656372,34.9146874 20.2934785,36.0777794 20.2934785,36.0777794 M25.1902595,22.0621371 C25.1902595,22.0621371 27.3064069,22.5285255 27.7716453,21.0497097 M14.0215942,22.3116453 C14.0215942,22.3116453 13.9097014,23.2588168 14.1953224,24.5965645 C14.4789804,25.9352718 14.8764942,27.1607408 14.8764942,27.1607408 M20.4161679,27.3958543 C20.4161679,27.3958543 22.5961139,28.2326664 22.9278661,29.2441342 M28.3576101,26.3997409 C28.3576101,26.3997409 29.2880868,23.5927739 29.8701255,23.3643779" id="Stroke-10" stroke="#1E3352" stroke-width="0.263" stroke-linecap="round" stroke-linejoin="round"></path>
                <path d="M23.254,29 L23,29.214" id="Stroke-11" stroke="#888B87" stroke-width="0.263" stroke-linecap="round" stroke-linejoin="round"></path>
            </g>
        </g>
    </g>
</svg>